<svg version="1.1" viewBox="0.0 0.0 600.0 371.0" fill="none" stroke="none" stroke-linecap="square" stroke-miterlimit="10" width="600" height="371" xmlns:xlink="http://www.w3.org/1999/xlink" xmlns="http://www.w3.org/2000/svg"><path fill="#ffffff" d="M0 0L600.0 0L600.0 371.0L0 371.0L0 0Z" fill-rule="nonzero"/><path stroke="#333333" stroke-width="1.0" stroke-linecap="butt" d="M83.5 332.5L581.5 332.5" fill-rule="nonzero"/><path stroke="#cccccc" stroke-width="1.0" stroke-linecap="butt" d="M83.5 230.5L581.5 230.5" fill-rule="nonzero"/><path stroke="#cccccc" stroke-width="1.0" stroke-linecap="butt" d="M83.5 127.5L581.5 127.5" fill-rule="nonzero"/><path stroke="#cccccc" stroke-width="1.0" stroke-linecap="butt" d="M83.5 25.5L581.5 25.5" fill-rule="nonzero"/><path stroke="#e6e6e6" stroke-width="1.0" stroke-linecap="butt" d="M83.5 298.5L581.5 298.5" fill-rule="nonzero"/><path stroke="#e6e6e6" stroke-width="1.0" stroke-linecap="butt" d="M83.5 264.5L581.5 264.5" fill-rule="nonzero"/><path stroke="#e6e6e6" stroke-width="1.0" stroke-linecap="butt" d="M83.5 196.5L581.5 196.5" fill-rule="nonzero"/><path stroke="#e6e6e6" stroke-width="1.0" stroke-linecap="butt" d="M83.5 161.5L581.5 161.5" fill-rule="nonzero"/><path stroke="#e6e6e6" stroke-width="1.0" stroke-linecap="butt" d="M83.5 93.5L581.5 93.5" fill-rule="nonzero"/><path stroke="#e6e6e6" stroke-width="1.0" stroke-linecap="butt" d="M83.5 59.5L581.5 59.5" fill-rule="nonzero"/><path stroke="#000000" stroke-width="1.0" stroke-linecap="butt" d="M83.5 332.5L83.5 25.5" fill-rule="nonzero"/><clipPath id="id_0"><path d="M83.55 25.55L581.45 25.55L581.45 332.45L83.55 332.45L83.55 25.55Z" clip-rule="nonzero"/></clipPath><path stroke="#000000" stroke-width="2.0" stroke-linecap="butt" stroke-opacity="0.0" clip-path="url(#id_0)" d="M151.0 332.0L107.0 332.0L107.0 64.0C107.0 62.89543 107.89543 62.0 109.0 62.0L149.0 62.0C150.10457 62.0 151.0 62.89543 151.0 64.0Z" fill-rule="nonzero"/><path fill="#4285f4" clip-path="url(#id_0)" d="M151.0 332.0L107.0 332.0L107.0 64.0C107.0 62.89543 107.89543 62.0 109.0 62.0L149.0 62.0C150.10457 62.0 151.0 62.89543 151.0 64.0Z" fill-rule="nonzero"/><path stroke="#000000" stroke-width="2.0" stroke-linecap="butt" stroke-opacity="0.0" clip-path="url(#id_0)" d="M219.0 332.0L175.0 332.0L175.0 291.0C175.0 289.89542 175.89543 289.0 177.0 289.0L217.0 289.0C218.10457 289.0 219.0 289.89542 219.0 291.0Z" fill-rule="nonzero"/><path fill="#4285f4" clip-path="url(#id_0)" d="M219.0 332.0L175.0 332.0L175.0 291.0C175.0 289.89542 175.89543 289.0 177.0 289.0L217.0 289.0C218.10457 289.0 219.0 289.89542 219.0 291.0Z" fill-rule="nonzero"/><path stroke="#000000" stroke-width="2.0" stroke-linecap="butt" stroke-opacity="0.0" clip-path="url(#id_0)" d="M287.0 332.0L243.0 332.0L243.0 112.0C243.0 110.89543 243.89543 110.0 245.0 110.0L285.0 110.0C286.10458 110.0 287.0 110.89543 287.0 112.0Z" fill-rule="nonzero"/><path fill="#4285f4" clip-path="url(#id_0)" d="M287.0 332.0L243.0 332.0L243.0 112.0C243.0 110.89543 243.89543 110.0 245.0 110.0L285.0 110.0C286.10458 110.0 287.0 110.89543 287.0 112.0Z" fill-rule="nonzero"/><path stroke="#000000" stroke-width="2.0" stroke-linecap="butt" stroke-opacity="0.0" clip-path="url(#id_0)" d="M355.0 332.0L311.0 332.0L311.0 309.0C311.0 307.89542 311.89542 307.0 313.0 307.0L353.0 307.0C354.10458 307.0 355.0 307.89542 355.0 309.0Z" fill-rule="nonzero"/><path fill="#4285f4" clip-path="url(#id_0)" d="M355.0 332.0L311.0 332.0L311.0 309.0C311.0 307.89542 311.89542 307.0 313.0 307.0L353.0 307.0C354.10458 307.0 355.0 307.89542 355.0 309.0Z" fill-rule="nonzero"/><path stroke="#000000" stroke-width="2.0" stroke-linecap="butt" stroke-opacity="0.0" clip-path="url(#id_0)" d="M422.0 332.0L378.0 332.0L378.0 313.0C378.0 311.89542 378.89542 311.0 380.0 311.0L420.0 311.0C421.10458 311.0 422.0 311.89542 422.0 313.0Z" fill-rule="nonzero"/><path fill="#4285f4" clip-path="url(#id_0)" d="M422.0 332.0L378.0 332.0L378.0 313.0C378.0 311.89542 378.89542 311.0 380.0 311.0L420.0 311.0C421.10458 311.0 422.0 311.89542 422.0 313.0Z" fill-rule="nonzero"/><path stroke="#000000" stroke-width="2.0" stroke-linecap="butt" stroke-opacity="0.0" clip-path="url(#id_0)" d="M490.0 332.0L446.0 332.0L446.0 327.0C446.0 325.89542 446.89542 325.0 448.0 325.0L488.0 325.0C489.10458 325.0 490.0 325.89542 490.0 327.0Z" fill-rule="nonzero"/><path fill="#4285f4" clip-path="url(#id_0)" d="M490.0 332.0L446.0 332.0L446.0 327.0C446.0 325.89542 446.89542 325.0 448.0 325.0L488.0 325.0C489.10458 325.0 490.0 325.89542 490.0 327.0Z" fill-rule="nonzero"/><path stroke="#000000" stroke-width="2.0" stroke-linecap="butt" stroke-opacity="0.0" clip-path="url(#id_0)" d="M558.0 332.0L514.0 332.0L514.0 315.0C514.0 313.89542 514.89545 313.0 516.0 313.0L556.0 313.0C557.10455 313.0 558.0 313.89542 558.0 315.0Z" fill-rule="nonzero"/><path fill="#4285f4" clip-path="url(#id_0)" d="M558.0 332.0L514.0 332.0L514.0 315.0C514.0 313.89542 514.89545 313.0 516.0 313.0L556.0 313.0C557.10455 313.0 558.0 313.89542 558.0 315.0Z" fill-rule="nonzero"/><path stroke="#000000" stroke-width="1.0" stroke-linecap="butt" d="M80.5 298.5L86.5 298.5" fill-rule="nonzero"/><path stroke="#000000" stroke-width="1.0" stroke-linecap="butt" d="M80.5 264.5L86.5 264.5" fill-rule="nonzero"/><path stroke="#000000" stroke-width="1.0" stroke-linecap="butt" d="M80.5 196.5L86.5 196.5" fill-rule="nonzero"/><path stroke="#000000" stroke-width="1.0" stroke-linecap="butt" d="M80.5 161.5L86.5 161.5" fill-rule="nonzero"/><path stroke="#000000" stroke-width="1.0" stroke-linecap="butt" d="M80.5 93.5L86.5 93.5" fill-rule="nonzero"/><path stroke="#000000" stroke-width="1.0" stroke-linecap="butt" d="M80.5 59.5L86.5 59.5" fill-rule="nonzero"/><path stroke="#000000" stroke-width="1.0" stroke-linecap="butt" d="M77.5 332.5L89.5 332.5" fill-rule="nonzero"/><path stroke="#000000" stroke-width="1.0" stroke-linecap="butt" d="M77.5 230.5L89.5 230.5" fill-rule="nonzero"/><path stroke="#000000" stroke-width="1.0" stroke-linecap="butt" d="M77.5 127.5L89.5 127.5" fill-rule="nonzero"/><path stroke="#000000" stroke-width="1.0" stroke-linecap="butt" d="M77.5 25.5L89.5 25.5" fill-rule="nonzero"/><path stroke="#4285f4" stroke-width="3.0" stroke-linejoin="round" stroke-linecap="round" d="M111.203125 74.87118L111.640625 70.62118L116.015625 70.62118L116.015625 71.62118L112.5625 71.62118L112.296875 73.9493Q112.9375 73.5743 113.734375 73.5743Q114.890625 73.5743 115.578125 74.35555Q116.265625 75.12118 116.265625 76.43368Q116.265625 77.74618 115.546875 78.5118Q114.84375 79.27743 113.5625 79.27743Q112.4375 79.27743 111.71875 78.65243Q111.0 78.0118 110.90625 76.90243L111.921875 76.90243Q112.03125 77.6368 112.453125 78.0118Q112.875 78.3868 113.5625 78.3868Q114.3125 78.3868 114.75 77.87118Q115.1875 77.35555 115.1875 76.4493Q115.1875 75.58993 114.71875 75.0743Q114.25 74.55868 113.46875 74.55868Q112.765625 74.55868 112.359375 74.85555L112.078125 75.08993L111.203125 74.87118ZM123.296875 79.15243L117.703125 79.15243L117.703125 78.37118L120.65625 75.08993Q121.3125 74.33993 121.5625 73.8868Q121.8125 73.41805 121.8125 72.91805Q121.8125 72.24618 121.40625 71.8243Q121.015625 71.3868 120.328125 71.3868Q119.53125 71.3868 119.078125 71.85555Q118.625 72.30868 118.625 73.1368L117.546875 73.1368Q117.546875 71.9493 118.296875 71.23055Q119.0625 70.49618 120.328125 70.49618Q121.53125 70.49618 122.21875 71.12118Q122.90625 71.74618 122.90625 72.79305Q122.90625 74.04305 121.296875 75.79305L119.015625 78.2618L123.296875 78.2618L123.296875 79.15243ZM124.84375 78.58993Q124.84375 78.30868 125.0 78.12118Q125.171875 77.93368 125.5 77.93368Q125.84375 77.93368 126.015625 78.12118Q126.1875 78.30868 126.1875 78.58993Q126.1875 78.85555 126.015625 79.04305Q125.84375 79.21493 125.5 79.21493Q125.171875 79.21493 125.0 79.04305Q124.84375 78.85555 124.84375 78.58993ZM132.89062 72.83993Q132.89062 73.48055 132.54688 73.98055Q132.20312 74.48055 131.64062 74.7618Q132.29688 75.04305 132.6875 75.60555Q133.07812 76.15243 133.07812 76.85555Q133.07812 77.9493 132.32812 78.62118Q131.59375 79.27743 130.375 79.27743Q129.14062 79.27743 128.39062 78.62118Q127.65625 77.9493 127.65625 76.85555Q127.65625 76.15243 128.03125 75.60555Q128.40625 75.04305 129.07812 74.7618Q128.51562 74.48055 128.1875 73.98055Q127.859375 73.48055 127.859375 72.83993Q127.859375 71.7618 128.54688 71.1368Q129.23438 70.49618 130.375 70.49618Q131.5 70.49618 132.1875 71.1368Q132.89062 71.7618 132.89062 72.83993ZM132.0 76.8243Q132.0 76.10555 131.54688 75.66805Q131.09375 75.21493 130.35938 75.21493Q129.625 75.21493 129.17188 75.66805Q128.73438 76.10555 128.73438 76.83993Q128.73438 77.55868 129.17188 77.98055Q129.60938 78.3868 130.375 78.3868Q131.125 78.3868 131.5625 77.96493Q132.0 77.54305 132.0 76.8243ZM130.375 71.3868Q129.73438 71.3868 129.32812 71.79305Q128.9375 72.18368 128.9375 72.87118Q128.9375 73.5118 129.32812 73.91805Q129.71875 74.3243 130.35938 74.3243Q131.01562 74.3243 131.40625 73.91805Q131.79688 73.5118 131.79688 72.87118Q131.79688 72.21493 131.39062 71.80868Q130.98438 71.3868 130.375 71.3868ZM140.0625 75.5118Q140.0625 77.41805 139.40625 78.35555Q138.76562 79.27743 137.375 79.27743Q136.01562 79.27743 135.35938 78.37118Q134.70312 77.46493 134.67188 75.65243L134.67188 74.21493Q134.67188 72.3243 135.3125 71.41805Q135.96875 70.49618 137.35938 70.49618Q138.73438 70.49618 139.39062 71.3868Q140.04688 72.2618 140.0625 74.10555L140.0625 75.5118ZM138.96875 74.02743Q138.96875 72.65243 138.57812 72.02743Q138.20312 71.3868 137.35938 71.3868Q136.53125 71.3868 136.14062 72.02743Q135.76562 72.65243 135.76562 73.9493L135.76562 75.68368Q135.76562 77.05868 136.15625 77.73055Q136.5625 78.3868 137.375 78.3868Q138.17188 78.3868 138.5625 77.7618Q138.95312 77.1368 138.96875 75.80868L138.96875 74.02743ZM142.20312 74.87118L142.64062 70.62118L147.01562 70.62118L147.01562 71.62118L143.5625 71.62118L143.29688 73.9493Q143.9375 73.5743 144.73438 73.5743Q145.89062 73.5743 146.57812 74.35555Q147.26562 75.12118 147.26562 76.43368Q147.26562 77.74618 146.54688 78.5118Q145.84375 79.27743 144.5625 79.27743Q143.4375 79.27743 142.71875 78.65243Q142.0 78.0118 141.90625 76.90243L142.92188 76.90243Q143.03125 77.6368 143.45312 78.0118Q143.875 78.3868 144.5625 78.3868Q145.3125 78.3868 145.75 77.87118Q146.1875 77.35555 146.1875 76.4493Q146.1875 75.58993 145.71875 75.0743Q145.25 74.55868 144.46875 74.55868Q143.76562 74.55868 143.35938 74.85555L143.07812 75.08993L142.20312 74.87118Z" fill-rule="nonzero"/><path fill="#ffffff" d="M111.203125 74.87118L111.640625 70.62118L116.015625 70.62118L116.015625 71.62118L112.5625 71.62118L112.296875 73.9493Q112.9375 73.5743 113.734375 73.5743Q114.890625 73.5743 115.578125 74.35555Q116.265625 75.12118 116.265625 76.43368Q116.265625 77.74618 115.546875 78.5118Q114.84375 79.27743 113.5625 79.27743Q112.4375 79.27743 111.71875 78.65243Q111.0 78.0118 110.90625 76.90243L111.921875 76.90243Q112.03125 77.6368 112.453125 78.0118Q112.875 78.3868 113.5625 78.3868Q114.3125 78.3868 114.75 77.87118Q115.1875 77.35555 115.1875 76.4493Q115.1875 75.58993 114.71875 75.0743Q114.25 74.55868 113.46875 74.55868Q112.765625 74.55868 112.359375 74.85555L112.078125 75.08993L111.203125 74.87118ZM123.296875 79.15243L117.703125 79.15243L117.703125 78.37118L120.65625 75.08993Q121.3125 74.33993 121.5625 73.8868Q121.8125 73.41805 121.8125 72.91805Q121.8125 72.24618 121.40625 71.8243Q121.015625 71.3868 120.328125 71.3868Q119.53125 71.3868 119.078125 71.85555Q118.625 72.30868 118.625 73.1368L117.546875 73.1368Q117.546875 71.9493 118.296875 71.23055Q119.0625 70.49618 120.328125 70.49618Q121.53125 70.49618 122.21875 71.12118Q122.90625 71.74618 122.90625 72.79305Q122.90625 74.04305 121.296875 75.79305L119.015625 78.2618L123.296875 78.2618L123.296875 79.15243ZM124.84375 78.58993Q124.84375 78.30868 125.0 78.12118Q125.171875 77.93368 125.5 77.93368Q125.84375 77.93368 126.015625 78.12118Q126.1875 78.30868 126.1875 78.58993Q126.1875 78.85555 126.015625 79.04305Q125.84375 79.21493 125.5 79.21493Q125.171875 79.21493 125.0 79.04305Q124.84375 78.85555 124.84375 78.58993ZM132.89062 72.83993Q132.89062 73.48055 132.54688 73.98055Q132.20312 74.48055 131.64062 74.7618Q132.29688 75.04305 132.6875 75.60555Q133.07812 76.15243 133.07812 76.85555Q133.07812 77.9493 132.32812 78.62118Q131.59375 79.27743 130.375 79.27743Q129.14062 79.27743 128.39062 78.62118Q127.65625 77.9493 127.65625 76.85555Q127.65625 76.15243 128.03125 75.60555Q128.40625 75.04305 129.07812 74.7618Q128.51562 74.48055 128.1875 73.98055Q127.859375 73.48055 127.859375 72.83993Q127.859375 71.7618 128.54688 71.1368Q129.23438 70.49618 130.375 70.49618Q131.5 70.49618 132.1875 71.1368Q132.89062 71.7618 132.89062 72.83993ZM132.0 76.8243Q132.0 76.10555 131.54688 75.66805Q131.09375 75.21493 130.35938 75.21493Q129.625 75.21493 129.17188 75.66805Q128.73438 76.10555 128.73438 76.83993Q128.73438 77.55868 129.17188 77.98055Q129.60938 78.3868 130.375 78.3868Q131.125 78.3868 131.5625 77.96493Q132.0 77.54305 132.0 76.8243ZM130.375 71.3868Q129.73438 71.3868 129.32812 71.79305Q128.9375 72.18368 128.9375 72.87118Q128.9375 73.5118 129.32812 73.91805Q129.71875 74.3243 130.35938 74.3243Q131.01562 74.3243 131.40625 73.91805Q131.79688 73.5118 131.79688 72.87118Q131.79688 72.21493 131.39062 71.80868Q130.98438 71.3868 130.375 71.3868ZM140.0625 75.5118Q140.0625 77.41805 139.40625 78.35555Q138.76562 79.27743 137.375 79.27743Q136.01562 79.27743 135.35938 78.37118Q134.70312 77.46493 134.67188 75.65243L134.67188 74.21493Q134.67188 72.3243 135.3125 71.41805Q135.96875 70.49618 137.35938 70.49618Q138.73438 70.49618 139.39062 71.3868Q140.04688 72.2618 140.0625 74.10555L140.0625 75.5118ZM138.96875 74.02743Q138.96875 72.65243 138.57812 72.02743Q138.20312 71.3868 137.35938 71.3868Q136.53125 71.3868 136.14062 72.02743Q135.76562 72.65243 135.76562 73.9493L135.76562 75.68368Q135.76562 77.05868 136.15625 77.73055Q136.5625 78.3868 137.375 78.3868Q138.17188 78.3868 138.5625 77.7618Q138.95312 77.1368 138.96875 75.80868L138.96875 74.02743ZM142.20312 74.87118L142.64062 70.62118L147.01562 70.62118L147.01562 71.62118L143.5625 71.62118L143.29688 73.9493Q143.9375 73.5743 144.73438 73.5743Q145.89062 73.5743 146.57812 74.35555Q147.26562 75.12118 147.26562 76.43368Q147.26562 77.74618 146.54688 78.5118Q145.84375 79.27743 144.5625 79.27743Q143.4375 79.27743 142.71875 78.65243Q142.0 78.0118 141.90625 76.90243L142.92188 76.90243Q143.03125 77.6368 143.45312 78.0118Q143.875 78.3868 144.5625 78.3868Q145.3125 78.3868 145.75 77.87118Q146.1875 77.35555 146.1875 76.4493Q146.1875 75.58993 145.71875 75.0743Q145.25 74.55868 144.46875 74.55868Q143.76562 74.55868 143.35938 74.85555L143.07812 75.08993L142.20312 74.87118Z" fill-rule="nonzero"/><path stroke="#4285f4" stroke-width="3.0" stroke-linejoin="round" stroke-linecap="round" d="M183.89062 299.86102Q183.89062 300.50165 183.54688 301.00165Q183.20312 301.50165 182.64062 301.7829Q183.29688 302.06415 183.6875 302.62665Q184.07812 303.17352 184.07812 303.87665Q184.07812 304.9704 183.32812 305.64227Q182.59375 306.29852 181.375 306.29852Q180.14062 306.29852 179.39062 305.64227Q178.65625 304.9704 178.65625 303.87665Q178.65625 303.17352 179.03125 302.62665Q179.40625 302.06415 180.07812 301.7829Q179.51562 301.50165 179.1875 301.00165Q178.85938 300.50165 178.85938 299.86102Q178.85938 298.7829 179.54688 298.1579Q180.23438 297.51727 181.375 297.51727Q182.5 297.51727 183.1875 298.1579Q183.89062 298.7829 183.89062 299.86102ZM183.0 303.8454Q183.0 303.12665 182.54688 302.68915Q182.09375 302.23602 181.35938 302.23602Q180.625 302.23602 180.17188 302.68915Q179.73438 303.12665 179.73438 303.86102Q179.73438 304.57977 180.17188 305.00165Q180.60938 305.4079 181.375 305.4079Q182.125 305.4079 182.5625 304.98602Q183.0 304.56415 183.0 303.8454ZM181.375 298.4079Q180.73438 298.4079 180.32812 298.81415Q179.9375 299.20477 179.9375 299.89227Q179.9375 300.5329 180.32812 300.93915Q180.71875 301.3454 181.35938 301.3454Q182.01562 301.3454 182.40625 300.93915Q182.79688 300.5329 182.79688 299.89227Q182.79688 299.23602 182.39062 298.82977Q181.98438 298.4079 181.375 298.4079ZM185.84375 305.61102Q185.84375 305.32977 186.0 305.14227Q186.17188 304.95477 186.5 304.95477Q186.84375 304.95477 187.01562 305.14227Q187.1875 305.32977 187.1875 305.61102Q187.1875 305.87665 187.01562 306.06415Q186.84375 306.23602 186.5 306.23602Q186.17188 306.23602 186.0 306.06415Q185.84375 305.87665 185.84375 305.61102ZM193.28125 303.31415L194.46875 303.31415L194.46875 304.18915L193.28125 304.18915L193.28125 306.17352L192.20312 306.17352L192.20312 304.18915L188.3125 304.18915L188.3125 303.54852L192.125 297.64227L193.28125 297.64227L193.28125 303.31415ZM189.54688 303.31415L192.20312 303.31415L192.20312 299.12665L192.0625 299.36102L189.54688 303.31415ZM201.29688 306.17352L195.70312 306.17352L195.70312 305.39227L198.65625 302.11102Q199.3125 301.36102 199.5625 300.9079Q199.8125 300.43915 199.8125 299.93915Q199.8125 299.26727 199.40625 298.8454Q199.01562 298.4079 198.32812 298.4079Q197.53125 298.4079 197.07812 298.87665Q196.625 299.32977 196.625 300.1579L195.54688 300.1579Q195.54688 298.9704 196.29688 298.25165Q197.0625 297.51727 198.32812 297.51727Q199.53125 297.51727 200.21875 298.14227Q200.90625 298.76727 200.90625 299.81415Q200.90625 301.06415 199.29688 302.81415L197.01562 305.2829L201.29688 305.2829L201.29688 306.17352ZM206.26562 306.17352L205.1875 306.17352L205.1875 298.95477L203.0 299.75165L203.0 298.76727L206.10938 297.5954L206.26562 297.5954L206.26562 306.17352ZM213.96875 297.64227L213.96875 298.54852L213.76562 298.54852Q212.5 298.57977 211.75 299.31415Q211.0 300.0329 210.875 301.3454Q211.5625 300.57977 212.71875 300.57977Q213.82812 300.57977 214.5 301.36102Q215.17188 302.14227 215.17188 303.39227Q215.17188 304.70477 214.45312 305.50165Q213.73438 306.29852 212.51562 306.29852Q211.29688 306.29852 210.53125 305.36102Q209.78125 304.4079 209.78125 302.92352L209.78125 302.51727Q209.78125 300.1579 210.78125 298.9079Q211.78125 297.6579 213.76562 297.64227L213.96875 297.64227ZM212.54688 301.48602Q211.98438 301.48602 211.51562 301.81415Q211.04688 302.14227 210.85938 302.6579L210.85938 303.04852Q210.85938 304.11102 211.32812 304.75165Q211.8125 305.39227 212.51562 305.39227Q213.25 305.39227 213.67188 304.86102Q214.09375 304.31415 214.09375 303.43915Q214.09375 302.56415 213.67188 302.0329Q213.25 301.48602 212.54688 301.48602Z" fill-rule="nonzero"/><path fill="#ffffff" d="M183.89062 299.86102Q183.89062 300.50165 183.54688 301.00165Q183.20312 301.50165 182.64062 301.7829Q183.29688 302.06415 183.6875 302.62665Q184.07812 303.17352 184.07812 303.87665Q184.07812 304.9704 183.32812 305.64227Q182.59375 306.29852 181.375 306.29852Q180.14062 306.29852 179.39062 305.64227Q178.65625 304.9704 178.65625 303.87665Q178.65625 303.17352 179.03125 302.62665Q179.40625 302.06415 180.07812 301.7829Q179.51562 301.50165 179.1875 301.00165Q178.85938 300.50165 178.85938 299.86102Q178.85938 298.7829 179.54688 298.1579Q180.23438 297.51727 181.375 297.51727Q182.5 297.51727 183.1875 298.1579Q183.89062 298.7829 183.89062 299.86102ZM183.0 303.8454Q183.0 303.12665 182.54688 302.68915Q182.09375 302.23602 181.35938 302.23602Q180.625 302.23602 180.17188 302.68915Q179.73438 303.12665 179.73438 303.86102Q179.73438 304.57977 180.17188 305.00165Q180.60938 305.4079 181.375 305.4079Q182.125 305.4079 182.5625 304.98602Q183.0 304.56415 183.0 303.8454ZM181.375 298.4079Q180.73438 298.4079 180.32812 298.81415Q179.9375 299.20477 179.9375 299.89227Q179.9375 300.5329 180.32812 300.93915Q180.71875 301.3454 181.35938 301.3454Q182.01562 301.3454 182.40625 300.93915Q182.79688 300.5329 182.79688 299.89227Q182.79688 299.23602 182.39062 298.82977Q181.98438 298.4079 181.375 298.4079ZM185.84375 305.61102Q185.84375 305.32977 186.0 305.14227Q186.17188 304.95477 186.5 304.95477Q186.84375 304.95477 187.01562 305.14227Q187.1875 305.32977 187.1875 305.61102Q187.1875 305.87665 187.01562 306.06415Q186.84375 306.23602 186.5 306.23602Q186.17188 306.23602 186.0 306.06415Q185.84375 305.87665 185.84375 305.61102ZM193.28125 303.31415L194.46875 303.31415L194.46875 304.18915L193.28125 304.18915L193.28125 306.17352L192.20312 306.17352L192.20312 304.18915L188.3125 304.18915L188.3125 303.54852L192.125 297.64227L193.28125 297.64227L193.28125 303.31415ZM189.54688 303.31415L192.20312 303.31415L192.20312 299.12665L192.0625 299.36102L189.54688 303.31415ZM201.29688 306.17352L195.70312 306.17352L195.70312 305.39227L198.65625 302.11102Q199.3125 301.36102 199.5625 300.9079Q199.8125 300.43915 199.8125 299.93915Q199.8125 299.26727 199.40625 298.8454Q199.01562 298.4079 198.32812 298.4079Q197.53125 298.4079 197.07812 298.87665Q196.625 299.32977 196.625 300.1579L195.54688 300.1579Q195.54688 298.9704 196.29688 298.25165Q197.0625 297.51727 198.32812 297.51727Q199.53125 297.51727 200.21875 298.14227Q200.90625 298.76727 200.90625 299.81415Q200.90625 301.06415 199.29688 302.81415L197.01562 305.2829L201.29688 305.2829L201.29688 306.17352ZM206.26562 306.17352L205.1875 306.17352L205.1875 298.95477L203.0 299.75165L203.0 298.76727L206.10938 297.5954L206.26562 297.5954L206.26562 306.17352ZM213.96875 297.64227L213.96875 298.54852L213.76562 298.54852Q212.5 298.57977 211.75 299.31415Q211.0 300.0329 210.875 301.3454Q211.5625 300.57977 212.71875 300.57977Q213.82812 300.57977 214.5 301.36102Q215.17188 302.14227 215.17188 303.39227Q215.17188 304.70477 214.45312 305.50165Q213.73438 306.29852 212.51562 306.29852Q211.29688 306.29852 210.53125 305.36102Q209.78125 304.4079 209.78125 302.92352L209.78125 302.51727Q209.78125 300.1579 210.78125 298.9079Q211.78125 297.6579 213.76562 297.64227L213.96875 297.64227ZM212.54688 301.48602Q211.98438 301.48602 211.51562 301.81415Q211.04688 302.14227 210.85938 302.6579L210.85938 303.04852Q210.85938 304.11102 211.32812 304.75165Q211.8125 305.39227 212.51562 305.39227Q213.25 305.39227 213.67188 304.86102Q214.09375 304.31415 214.09375 303.43915Q214.09375 302.56415 213.67188 302.0329Q213.25 301.48602 212.54688 301.48602Z" fill-rule="nonzero"/><path stroke="#ffffff" stroke-width="3.0" stroke-linejoin="round" stroke-linecap="round" d="M247.78125 91.804756L248.96875 91.804756L248.96875 92.679756L247.78125 92.679756L247.78125 94.66413L246.70312 94.66413L246.70312 92.679756L242.8125 92.679756L242.8125 92.03913L246.625 86.13288L247.78125 86.13288L247.78125 91.804756ZM244.04688 91.804756L246.70312 91.804756L246.70312 87.617256L246.5625 87.85163L244.04688 91.804756ZM251.78125 89.867256L252.59375 89.867256Q253.375 89.85163 253.8125 89.461006Q254.25 89.07038 254.25 88.398506Q254.25 86.898506 252.75 86.898506Q252.04688 86.898506 251.625 87.304756Q251.21875 87.711006 251.21875 88.367256L250.125 88.367256Q250.125 87.35163 250.85938 86.679756Q251.60938 86.00788 252.75 86.00788Q253.95312 86.00788 254.64062 86.648506Q255.32812 87.28913 255.32812 88.429756Q255.32812 88.992256 254.96875 89.50788Q254.60938 90.023506 253.98438 90.28913Q254.6875 90.50788 255.0625 91.023506Q255.45312 91.53913 255.45312 92.28913Q255.45312 93.429756 254.70312 94.117256Q253.95312 94.78913 252.75 94.78913Q251.5625 94.78913 250.79688 94.13288Q250.04688 93.47663 250.04688 92.41413L251.14062 92.41413Q251.14062 93.086006 251.57812 93.492256Q252.01562 93.898506 252.76562 93.898506Q253.54688 93.898506 253.95312 93.492256Q254.375 93.07038 254.375 92.304756Q254.375 91.57038 253.92188 91.179756Q253.46875 90.773506 252.59375 90.75788L251.78125 90.75788L251.78125 89.867256ZM257.34375 94.10163Q257.34375 93.82038 257.5 93.63288Q257.67188 93.44538 258.0 93.44538Q258.34375 93.44538 258.51562 93.63288Q258.6875 93.82038 258.6875 94.10163Q258.6875 94.367256 258.51562 94.554756Q258.34375 94.72663 258.0 94.72663Q257.67188 94.72663 257.5 94.554756Q257.34375 94.367256 257.34375 94.10163ZM260.70312 90.38288L261.14062 86.13288L265.51562 86.13288L265.51562 87.13288L262.0625 87.13288L261.79688 89.461006Q262.4375 89.086006 263.23438 89.086006Q264.39062 89.086006 265.07812 89.867256Q265.76562 90.63288 265.76562 91.94538Q265.76562 93.25788 265.04688 94.023506Q264.34375 94.78913 263.0625 94.78913Q261.9375 94.78913 261.21875 94.16413Q260.5 93.523506 260.40625 92.41413L261.42188 92.41413Q261.53125 93.148506 261.95312 93.523506Q262.375 93.898506 263.0625 93.898506Q263.8125 93.898506 264.25 93.38288Q264.6875 92.867256 264.6875 91.961006Q264.6875 91.10163 264.21875 90.586006Q263.75 90.07038 262.96875 90.07038Q262.26562 90.07038 261.85938 90.367256L261.57812 90.60163L260.70312 90.38288ZM267.70312 90.38288L268.14062 86.13288L272.51562 86.13288L272.51562 87.13288L269.0625 87.13288L268.79688 89.461006Q269.4375 89.086006 270.23438 89.086006Q271.39062 89.086006 272.07812 89.867256Q272.76562 90.63288 272.76562 91.94538Q272.76562 93.25788 272.04688 94.023506Q271.34375 94.78913 270.0625 94.78913Q268.9375 94.78913 268.21875 94.16413Q267.5 93.523506 267.40625 92.41413L268.42188 92.41413Q268.53125 93.148506 268.95312 93.523506Q269.375 93.898506 270.0625 93.898506Q270.8125 93.898506 271.25 93.38288Q271.6875 92.867256 271.6875 91.961006Q271.6875 91.10163 271.21875 90.586006Q270.75 90.07038 269.96875 90.07038Q269.26562 90.07038 268.85938 90.367256L268.57812 90.60163L267.70312 90.38288ZM274.70312 90.38288L275.14062 86.13288L279.51562 86.13288L279.51562 87.13288L276.0625 87.13288L275.79688 89.461006Q276.4375 89.086006 277.23438 89.086006Q278.39062 89.086006 279.07812 89.867256Q279.76562 90.63288 279.76562 91.94538Q279.76562 93.25788 279.04688 94.023506Q278.34375 94.78913 277.0625 94.78913Q275.9375 94.78913 275.21875 94.16413Q274.5 93.523506 274.40625 92.41413L275.42188 92.41413Q275.53125 93.148506 275.95312 93.523506Q276.375 93.898506 277.0625 93.898506Q277.8125 93.898506 278.25 93.38288Q278.6875 92.867256 278.6875 91.961006Q278.6875 91.10163 278.21875 90.586006Q277.75 90.07038 276.96875 90.07038Q276.26562 90.07038 275.85938 90.367256L275.57812 90.60163L274.70312 90.38288ZM285.78125 91.804756L286.96875 91.804756L286.96875 92.679756L285.78125 92.679756L285.78125 94.66413L284.70312 94.66413L284.70312 92.679756L280.8125 92.679756L280.8125 92.03913L284.625 86.13288L285.78125 86.13288L285.78125 91.804756ZM282.04688 91.804756L284.70312 91.804756L284.70312 87.617256L284.5625 87.85163L282.04688 91.804756Z" fill-rule="nonzero"/><path fill="#4285f4" d="M247.78125 91.804756L248.96875 91.804756L248.96875 92.679756L247.78125 92.679756L247.78125 94.66413L246.70312 94.66413L246.70312 92.679756L242.8125 92.679756L242.8125 92.03913L246.625 86.13288L247.78125 86.13288L247.78125 91.804756ZM244.04688 91.804756L246.70312 91.804756L246.70312 87.617256L246.5625 87.85163L244.04688 91.804756ZM251.78125 89.867256L252.59375 89.867256Q253.375 89.85163 253.8125 89.461006Q254.25 89.07038 254.25 88.398506Q254.25 86.898506 252.75 86.898506Q252.04688 86.898506 251.625 87.304756Q251.21875 87.711006 251.21875 88.367256L250.125 88.367256Q250.125 87.35163 250.85938 86.679756Q251.60938 86.00788 252.75 86.00788Q253.95312 86.00788 254.64062 86.648506Q255.32812 87.28913 255.32812 88.429756Q255.32812 88.992256 254.96875 89.50788Q254.60938 90.023506 253.98438 90.28913Q254.6875 90.50788 255.0625 91.023506Q255.45312 91.53913 255.45312 92.28913Q255.45312 93.429756 254.70312 94.117256Q253.95312 94.78913 252.75 94.78913Q251.5625 94.78913 250.79688 94.13288Q250.04688 93.47663 250.04688 92.41413L251.14062 92.41413Q251.14062 93.086006 251.57812 93.492256Q252.01562 93.898506 252.76562 93.898506Q253.54688 93.898506 253.95312 93.492256Q254.375 93.07038 254.375 92.304756Q254.375 91.57038 253.92188 91.179756Q253.46875 90.773506 252.59375 90.75788L251.78125 90.75788L251.78125 89.867256ZM257.34375 94.10163Q257.34375 93.82038 257.5 93.63288Q257.67188 93.44538 258.0 93.44538Q258.34375 93.44538 258.51562 93.63288Q258.6875 93.82038 258.6875 94.10163Q258.6875 94.367256 258.51562 94.554756Q258.34375 94.72663 258.0 94.72663Q257.67188 94.72663 257.5 94.554756Q257.34375 94.367256 257.34375 94.10163ZM260.70312 90.38288L261.14062 86.13288L265.51562 86.13288L265.51562 87.13288L262.0625 87.13288L261.79688 89.461006Q262.4375 89.086006 263.23438 89.086006Q264.39062 89.086006 265.07812 89.867256Q265.76562 90.63288 265.76562 91.94538Q265.76562 93.25788 265.04688 94.023506Q264.34375 94.78913 263.0625 94.78913Q261.9375 94.78913 261.21875 94.16413Q260.5 93.523506 260.40625 92.41413L261.42188 92.41413Q261.53125 93.148506 261.95312 93.523506Q262.375 93.898506 263.0625 93.898506Q263.8125 93.898506 264.25 93.38288Q264.6875 92.867256 264.6875 91.961006Q264.6875 91.10163 264.21875 90.586006Q263.75 90.07038 262.96875 90.07038Q262.26562 90.07038 261.85938 90.367256L261.57812 90.60163L260.70312 90.38288ZM267.70312 90.38288L268.14062 86.13288L272.51562 86.13288L272.51562 87.13288L269.0625 87.13288L268.79688 89.461006Q269.4375 89.086006 270.23438 89.086006Q271.39062 89.086006 272.07812 89.867256Q272.76562 90.63288 272.76562 91.94538Q272.76562 93.25788 272.04688 94.023506Q271.34375 94.78913 270.0625 94.78913Q268.9375 94.78913 268.21875 94.16413Q267.5 93.523506 267.40625 92.41413L268.42188 92.41413Q268.53125 93.148506 268.95312 93.523506Q269.375 93.898506 270.0625 93.898506Q270.8125 93.898506 271.25 93.38288Q271.6875 92.867256 271.6875 91.961006Q271.6875 91.10163 271.21875 90.586006Q270.75 90.07038 269.96875 90.07038Q269.26562 90.07038 268.85938 90.367256L268.57812 90.60163L267.70312 90.38288ZM274.70312 90.38288L275.14062 86.13288L279.51562 86.13288L279.51562 87.13288L276.0625 87.13288L275.79688 89.461006Q276.4375 89.086006 277.23438 89.086006Q278.39062 89.086006 279.07812 89.867256Q279.76562 90.63288 279.76562 91.94538Q279.76562 93.25788 279.04688 94.023506Q278.34375 94.78913 277.0625 94.78913Q275.9375 94.78913 275.21875 94.16413Q274.5 93.523506 274.40625 92.41413L275.42188 92.41413Q275.53125 93.148506 275.95312 93.523506Q276.375 93.898506 277.0625 93.898506Q277.8125 93.898506 278.25 93.38288Q278.6875 92.867256 278.6875 91.961006Q278.6875 91.10163 278.21875 90.586006Q277.75 90.07038 276.96875 90.07038Q276.26562 90.07038 275.85938 90.367256L275.57812 90.60163L274.70312 90.38288ZM285.78125 91.804756L286.96875 91.804756L286.96875 92.679756L285.78125 92.679756L285.78125 94.66413L284.70312 94.66413L284.70312 92.679756L280.8125 92.679756L280.8125 92.03913L284.625 86.13288L285.78125 86.13288L285.78125 91.804756ZM282.04688 91.804756L284.70312 91.804756L284.70312 87.617256L284.5625 87.85163L282.04688 91.804756Z" fill-rule="nonzero"/><path stroke="#4285f4" stroke-width="3.0" stroke-linejoin="round" stroke-linecap="round" d="M319.28125 321.39056L320.46875 321.39056L320.46875 322.26556L319.28125 322.26556L319.28125 324.24994L318.20312 324.24994L318.20312 322.26556L314.3125 322.26556L314.3125 321.62494L318.125 315.7187L319.28125 315.7187L319.28125 321.39056ZM315.54688 321.39056L318.20312 321.39056L318.20312 317.20306L318.0625 317.43744L315.54688 321.39056ZM321.84375 323.68744Q321.84375 323.4062 322.0 323.2187Q322.17188 323.0312 322.5 323.0312Q322.84375 323.0312 323.01562 323.2187Q323.1875 323.4062 323.1875 323.68744Q323.1875 323.95306 323.01562 324.14056Q322.84375 324.31244 322.5 324.31244Q322.17188 324.31244 322.0 324.14056Q321.84375 323.95306 321.84375 323.68744ZM329.89062 317.93744Q329.89062 318.57806 329.54688 319.07806Q329.20312 319.57806 328.64062 319.8593Q329.29688 320.14056 329.6875 320.70306Q330.07812 321.24994 330.07812 321.95306Q330.07812 323.0468 329.32812 323.7187Q328.59375 324.37494 327.375 324.37494Q326.14062 324.37494 325.39062 323.7187Q324.65625 323.0468 324.65625 321.95306Q324.65625 321.24994 325.03125 320.70306Q325.40625 320.14056 326.07812 319.8593Q325.51562 319.57806 325.1875 319.07806Q324.85938 318.57806 324.85938 317.93744Q324.85938 316.8593 325.54688 316.2343Q326.23438 315.5937 327.375 315.5937Q328.5 315.5937 329.1875 316.2343Q329.89062 316.8593 329.89062 317.93744ZM329.0 321.9218Q329.0 321.20306 328.54688 320.76556Q328.09375 320.31244 327.35938 320.31244Q326.625 320.31244 326.17188 320.76556Q325.73438 321.20306 325.73438 321.93744Q325.73438 322.6562 326.17188 323.07806Q326.60938 323.4843 327.375 323.4843Q328.125 323.4843 328.5625 323.06244Q329.0 322.64056 329.0 321.9218ZM327.375 316.4843Q326.73438 316.4843 326.32812 316.89056Q325.9375 317.2812 325.9375 317.9687Q325.9375 318.6093 326.32812 319.01556Q326.71875 319.4218 327.35938 319.4218Q328.01562 319.4218 328.40625 319.01556Q328.79688 318.6093 328.79688 317.9687Q328.79688 317.31244 328.39062 316.9062Q327.98438 316.4843 327.375 316.4843ZM336.89062 317.93744Q336.89062 318.57806 336.54688 319.07806Q336.20312 319.57806 335.64062 319.8593Q336.29688 320.14056 336.6875 320.70306Q337.07812 321.24994 337.07812 321.95306Q337.07812 323.0468 336.32812 323.7187Q335.59375 324.37494 334.375 324.37494Q333.14062 324.37494 332.39062 323.7187Q331.65625 323.0468 331.65625 321.95306Q331.65625 321.24994 332.03125 320.70306Q332.40625 320.14056 333.07812 319.8593Q332.51562 319.57806 332.1875 319.07806Q331.85938 318.57806 331.85938 317.93744Q331.85938 316.8593 332.54688 316.2343Q333.23438 315.5937 334.375 315.5937Q335.5 315.5937 336.1875 316.2343Q336.89062 316.8593 336.89062 317.93744ZM336.0 321.9218Q336.0 321.20306 335.54688 320.76556Q335.09375 320.31244 334.35938 320.31244Q333.625 320.31244 333.17188 320.76556Q332.73438 321.20306 332.73438 321.93744Q332.73438 322.6562 333.17188 323.07806Q333.60938 323.4843 334.375 323.4843Q335.125 323.4843 335.5625 323.06244Q336.0 322.64056 336.0 321.9218ZM334.375 316.4843Q333.73438 316.4843 333.32812 316.89056Q332.9375 317.2812 332.9375 317.9687Q332.9375 318.6093 333.32812 319.01556Q333.71875 319.4218 334.35938 319.4218Q335.01562 319.4218 335.40625 319.01556Q335.79688 318.6093 335.79688 317.9687Q335.79688 317.31244 335.39062 316.9062Q334.98438 316.4843 334.375 316.4843ZM344.21875 316.32806L340.6875 324.24994L339.54688 324.24994L343.0625 316.6093L338.45312 316.6093L338.45312 315.7187L344.21875 315.7187L344.21875 316.32806ZM349.96875 315.7187L349.96875 316.62494L349.76562 316.62494Q348.5 316.6562 347.75 317.39056Q347.0 318.1093 346.875 319.4218Q347.5625 318.6562 348.71875 318.6562Q349.82812 318.6562 350.5 319.43744Q351.17188 320.2187 351.17188 321.4687Q351.17188 322.7812 350.45312 323.57806Q349.73438 324.37494 348.51562 324.37494Q347.29688 324.37494 346.53125 323.43744Q345.78125 322.4843 345.78125 320.99994L345.78125 320.5937Q345.78125 318.2343 346.78125 316.9843Q347.78125 315.7343 349.76562 315.7187L349.96875 315.7187ZM348.54688 319.56244Q347.98438 319.56244 347.51562 319.89056Q347.04688 320.2187 346.85938 320.7343L346.85938 321.12494Q346.85938 322.18744 347.32812 322.82806Q347.8125 323.4687 348.51562 323.4687Q349.25 323.4687 349.67188 322.93744Q350.09375 322.39056 350.09375 321.51556Q350.09375 320.64056 349.67188 320.1093Q349.25 319.56244 348.54688 319.56244Z" fill-rule="nonzero"/><path fill="#ffffff" d="M319.28125 321.39056L320.46875 321.39056L320.46875 322.26556L319.28125 322.26556L319.28125 324.24994L318.20312 324.24994L318.20312 322.26556L314.3125 322.26556L314.3125 321.62494L318.125 315.7187L319.28125 315.7187L319.28125 321.39056ZM315.54688 321.39056L318.20312 321.39056L318.20312 317.20306L318.0625 317.43744L315.54688 321.39056ZM321.84375 323.68744Q321.84375 323.4062 322.0 323.2187Q322.17188 323.0312 322.5 323.0312Q322.84375 323.0312 323.01562 323.2187Q323.1875 323.4062 323.1875 323.68744Q323.1875 323.95306 323.01562 324.14056Q322.84375 324.31244 322.5 324.31244Q322.17188 324.31244 322.0 324.14056Q321.84375 323.95306 321.84375 323.68744ZM329.89062 317.93744Q329.89062 318.57806 329.54688 319.07806Q329.20312 319.57806 328.64062 319.8593Q329.29688 320.14056 329.6875 320.70306Q330.07812 321.24994 330.07812 321.95306Q330.07812 323.0468 329.32812 323.7187Q328.59375 324.37494 327.375 324.37494Q326.14062 324.37494 325.39062 323.7187Q324.65625 323.0468 324.65625 321.95306Q324.65625 321.24994 325.03125 320.70306Q325.40625 320.14056 326.07812 319.8593Q325.51562 319.57806 325.1875 319.07806Q324.85938 318.57806 324.85938 317.93744Q324.85938 316.8593 325.54688 316.2343Q326.23438 315.5937 327.375 315.5937Q328.5 315.5937 329.1875 316.2343Q329.89062 316.8593 329.89062 317.93744ZM329.0 321.9218Q329.0 321.20306 328.54688 320.76556Q328.09375 320.31244 327.35938 320.31244Q326.625 320.31244 326.17188 320.76556Q325.73438 321.20306 325.73438 321.93744Q325.73438 322.6562 326.17188 323.07806Q326.60938 323.4843 327.375 323.4843Q328.125 323.4843 328.5625 323.06244Q329.0 322.64056 329.0 321.9218ZM327.375 316.4843Q326.73438 316.4843 326.32812 316.89056Q325.9375 317.2812 325.9375 317.9687Q325.9375 318.6093 326.32812 319.01556Q326.71875 319.4218 327.35938 319.4218Q328.01562 319.4218 328.40625 319.01556Q328.79688 318.6093 328.79688 317.9687Q328.79688 317.31244 328.39062 316.9062Q327.98438 316.4843 327.375 316.4843ZM336.89062 317.93744Q336.89062 318.57806 336.54688 319.07806Q336.20312 319.57806 335.64062 319.8593Q336.29688 320.14056 336.6875 320.70306Q337.07812 321.24994 337.07812 321.95306Q337.07812 323.0468 336.32812 323.7187Q335.59375 324.37494 334.375 324.37494Q333.14062 324.37494 332.39062 323.7187Q331.65625 323.0468 331.65625 321.95306Q331.65625 321.24994 332.03125 320.70306Q332.40625 320.14056 333.07812 319.8593Q332.51562 319.57806 332.1875 319.07806Q331.85938 318.57806 331.85938 317.93744Q331.85938 316.8593 332.54688 316.2343Q333.23438 315.5937 334.375 315.5937Q335.5 315.5937 336.1875 316.2343Q336.89062 316.8593 336.89062 317.93744ZM336.0 321.9218Q336.0 321.20306 335.54688 320.76556Q335.09375 320.31244 334.35938 320.31244Q333.625 320.31244 333.17188 320.76556Q332.73438 321.20306 332.73438 321.93744Q332.73438 322.6562 333.17188 323.07806Q333.60938 323.4843 334.375 323.4843Q335.125 323.4843 335.5625 323.06244Q336.0 322.64056 336.0 321.9218ZM334.375 316.4843Q333.73438 316.4843 333.32812 316.89056Q332.9375 317.2812 332.9375 317.9687Q332.9375 318.6093 333.32812 319.01556Q333.71875 319.4218 334.35938 319.4218Q335.01562 319.4218 335.40625 319.01556Q335.79688 318.6093 335.79688 317.9687Q335.79688 317.31244 335.39062 316.9062Q334.98438 316.4843 334.375 316.4843ZM344.21875 316.32806L340.6875 324.24994L339.54688 324.24994L343.0625 316.6093L338.45312 316.6093L338.45312 315.7187L344.21875 315.7187L344.21875 316.32806ZM349.96875 315.7187L349.96875 316.62494L349.76562 316.62494Q348.5 316.6562 347.75 317.39056Q347.0 318.1093 346.875 319.4218Q347.5625 318.6562 348.71875 318.6562Q349.82812 318.6562 350.5 319.43744Q351.17188 320.2187 351.17188 321.4687Q351.17188 322.7812 350.45312 323.57806Q349.73438 324.37494 348.51562 324.37494Q347.29688 324.37494 346.53125 323.43744Q345.78125 322.4843 345.78125 320.99994L345.78125 320.5937Q345.78125 318.2343 346.78125 316.9843Q347.78125 315.7343 349.76562 315.7187L349.96875 315.7187ZM348.54688 319.56244Q347.98438 319.56244 347.51562 319.89056Q347.04688 320.2187 346.85938 320.7343L346.85938 321.12494Q346.85938 322.18744 347.32812 322.82806Q347.8125 323.4687 348.51562 323.4687Q349.25 323.4687 349.67188 322.93744Q350.09375 322.39056 350.09375 321.51556Q350.09375 320.64056 349.67188 320.1093Q349.25 319.56244 348.54688 319.56244Z" fill-rule="nonzero"/><path stroke="#4285f4" stroke-width="3.0" stroke-linejoin="round" stroke-linecap="round" d="M386.28125 323.5481L387.46875 323.5481L387.46875 324.4231L386.28125 324.4231L386.28125 326.40747L385.20312 326.40747L385.20312 324.4231L381.3125 324.4231L381.3125 323.78247L385.125 317.87622L386.28125 317.87622L386.28125 323.5481ZM382.54688 323.5481L385.20312 323.5481L385.20312 319.3606L385.0625 319.59497L382.54688 323.5481ZM388.84375 325.84497Q388.84375 325.56372 389.0 325.37622Q389.17188 325.18872 389.5 325.18872Q389.84375 325.18872 390.01562 325.37622Q390.1875 325.56372 390.1875 325.84497Q390.1875 326.1106 390.01562 326.2981Q389.84375 326.46997 389.5 326.46997Q389.17188 326.46997 389.0 326.2981Q388.84375 326.1106 388.84375 325.84497ZM395.26562 326.40747L394.1875 326.40747L394.1875 319.18872L392.0 319.9856L392.0 319.00122L395.10938 317.82935L395.26562 317.82935L395.26562 326.40747ZM404.29688 326.40747L398.70312 326.40747L398.70312 325.62622L401.65625 322.34497Q402.3125 321.59497 402.5625 321.14185Q402.8125 320.6731 402.8125 320.1731Q402.8125 319.50122 402.40625 319.07935Q402.01562 318.64185 401.32812 318.64185Q400.53125 318.64185 400.07812 319.1106Q399.625 319.56372 399.625 320.39185L398.54688 320.39185Q398.54688 319.20435 399.29688 318.4856Q400.0625 317.75122 401.32812 317.75122Q402.53125 317.75122 403.21875 318.37622Q403.90625 319.00122 403.90625 320.0481Q403.90625 321.2981 402.29688 323.0481L400.01562 325.51685L404.29688 325.51685L404.29688 326.40747ZM411.29688 326.40747L405.70312 326.40747L405.70312 325.62622L408.65625 322.34497Q409.3125 321.59497 409.5625 321.14185Q409.8125 320.6731 409.8125 320.1731Q409.8125 319.50122 409.40625 319.07935Q409.01562 318.64185 408.32812 318.64185Q407.53125 318.64185 407.07812 319.1106Q406.625 319.56372 406.625 320.39185L405.54688 320.39185Q405.54688 319.20435 406.29688 318.4856Q407.0625 317.75122 408.32812 317.75122Q409.53125 317.75122 410.21875 318.37622Q410.90625 319.00122 410.90625 320.0481Q410.90625 321.2981 409.29688 323.0481L407.01562 325.51685L411.29688 325.51685L411.29688 326.40747ZM418.29688 326.40747L412.70312 326.40747L412.70312 325.62622L415.65625 322.34497Q416.3125 321.59497 416.5625 321.14185Q416.8125 320.6731 416.8125 320.1731Q416.8125 319.50122 416.40625 319.07935Q416.01562 318.64185 415.32812 318.64185Q414.53125 318.64185 414.07812 319.1106Q413.625 319.56372 413.625 320.39185L412.54688 320.39185Q412.54688 319.20435 413.29688 318.4856Q414.0625 317.75122 415.32812 317.75122Q416.53125 317.75122 417.21875 318.37622Q417.90625 319.00122 417.90625 320.0481Q417.90625 321.2981 416.29688 323.0481L414.01562 325.51685L418.29688 325.51685L418.29688 326.40747Z" fill-rule="nonzero"/><path fill="#ffffff" d="M386.28125 323.5481L387.46875 323.5481L387.46875 324.4231L386.28125 324.4231L386.28125 326.40747L385.20312 326.40747L385.20312 324.4231L381.3125 324.4231L381.3125 323.78247L385.125 317.87622L386.28125 317.87622L386.28125 323.5481ZM382.54688 323.5481L385.20312 323.5481L385.20312 319.3606L385.0625 319.59497L382.54688 323.5481ZM388.84375 325.84497Q388.84375 325.56372 389.0 325.37622Q389.17188 325.18872 389.5 325.18872Q389.84375 325.18872 390.01562 325.37622Q390.1875 325.56372 390.1875 325.84497Q390.1875 326.1106 390.01562 326.2981Q389.84375 326.46997 389.5 326.46997Q389.17188 326.46997 389.0 326.2981Q388.84375 326.1106 388.84375 325.84497ZM395.26562 326.40747L394.1875 326.40747L394.1875 319.18872L392.0 319.9856L392.0 319.00122L395.10938 317.82935L395.26562 317.82935L395.26562 326.40747ZM404.29688 326.40747L398.70312 326.40747L398.70312 325.62622L401.65625 322.34497Q402.3125 321.59497 402.5625 321.14185Q402.8125 320.6731 402.8125 320.1731Q402.8125 319.50122 402.40625 319.07935Q402.01562 318.64185 401.32812 318.64185Q400.53125 318.64185 400.07812 319.1106Q399.625 319.56372 399.625 320.39185L398.54688 320.39185Q398.54688 319.20435 399.29688 318.4856Q400.0625 317.75122 401.32812 317.75122Q402.53125 317.75122 403.21875 318.37622Q403.90625 319.00122 403.90625 320.0481Q403.90625 321.2981 402.29688 323.0481L400.01562 325.51685L404.29688 325.51685L404.29688 326.40747ZM411.29688 326.40747L405.70312 326.40747L405.70312 325.62622L408.65625 322.34497Q409.3125 321.59497 409.5625 321.14185Q409.8125 320.6731 409.8125 320.1731Q409.8125 319.50122 409.40625 319.07935Q409.01562 318.64185 408.32812 318.64185Q407.53125 318.64185 407.07812 319.1106Q406.625 319.56372 406.625 320.39185L405.54688 320.39185Q405.54688 319.20435 406.29688 318.4856Q407.0625 317.75122 408.32812 317.75122Q409.53125 317.75122 410.21875 318.37622Q410.90625 319.00122 410.90625 320.0481Q410.90625 321.2981 409.29688 323.0481L407.01562 325.51685L411.29688 325.51685L411.29688 326.40747ZM418.29688 326.40747L412.70312 326.40747L412.70312 325.62622L415.65625 322.34497Q416.3125 321.59497 416.5625 321.14185Q416.8125 320.6731 416.8125 320.1731Q416.8125 319.50122 416.40625 319.07935Q416.01562 318.64185 415.32812 318.64185Q414.53125 318.64185 414.07812 319.1106Q413.625 319.56372 413.625 320.39185L412.54688 320.39185Q412.54688 319.20435 413.29688 318.4856Q414.0625 317.75122 415.32812 317.75122Q416.53125 317.75122 417.21875 318.37622Q417.90625 319.00122 417.90625 320.0481Q417.90625 321.2981 416.29688 323.0481L414.01562 325.51685L418.29688 325.51685L418.29688 326.40747Z" fill-rule="nonzero"/><path stroke="#ffffff" stroke-width="3.0" stroke-linejoin="round" stroke-linecap="round" d="M453.26562 309.8256L452.1875 309.8256L452.1875 302.60684L450.0 303.40372L450.0 302.41934L453.10938 301.24747L453.26562 301.24747L453.26562 309.8256ZM456.84375 309.2631Q456.84375 308.98184 457.0 308.79434Q457.17188 308.60684 457.5 308.60684Q457.84375 308.60684 458.01562 308.79434Q458.1875 308.98184 458.1875 309.2631Q458.1875 309.52872 458.01562 309.71622Q457.84375 309.8881 457.5 309.8881Q457.17188 309.8881 457.0 309.71622Q456.84375 309.52872 456.84375 309.2631ZM464.28125 306.96622L465.46875 306.96622L465.46875 307.84122L464.28125 307.84122L464.28125 309.8256L463.20312 309.8256L463.20312 307.84122L459.3125 307.84122L459.3125 307.2006L463.125 301.29434L464.28125 301.29434L464.28125 306.96622ZM460.54688 306.96622L463.20312 306.96622L463.20312 302.77872L463.0625 303.0131L460.54688 306.96622ZM470.85938 306.0756Q470.53125 306.48184 470.04688 306.73184Q469.57812 306.96622 469.01562 306.96622Q468.28125 306.96622 467.73438 306.60684Q467.1875 306.24747 466.89062 305.59122Q466.59375 304.91934 466.59375 304.12247Q466.59375 303.27872 466.90625 302.59122Q467.23438 301.90372 467.82812 301.54434Q468.4375 301.16934 469.23438 301.16934Q470.5 301.16934 471.21875 302.12247Q471.95312 303.0756 471.95312 304.7006L471.95312 305.0131Q471.95312 307.5131 470.96875 308.65372Q469.98438 309.79434 468.0 309.8256L467.78125 309.8256L467.78125 308.91934L468.01562 308.91934Q469.35938 308.8881 470.07812 308.21622Q470.79688 307.54434 470.85938 306.0756ZM469.1875 306.0756Q469.73438 306.0756 470.1875 305.74747Q470.65625 305.40372 470.875 304.91934L470.875 304.48184Q470.875 303.41934 470.40625 302.74747Q469.9375 302.0756 469.23438 302.0756Q468.51562 302.0756 468.07812 302.62247Q467.65625 303.16934 467.65625 304.0756Q467.65625 304.9506 468.0625 305.5131Q468.48438 306.0756 469.1875 306.0756ZM479.0625 306.18497Q479.0625 308.09122 478.40625 309.02872Q477.76562 309.9506 476.375 309.9506Q475.01562 309.9506 474.35938 309.04434Q473.70312 308.1381 473.67188 306.3256L473.67188 304.8881Q473.67188 302.99747 474.3125 302.09122Q474.96875 301.16934 476.35938 301.16934Q477.73438 301.16934 478.39062 302.05997Q479.04688 302.93497 479.0625 304.77872L479.0625 306.18497ZM477.96875 304.7006Q477.96875 303.3256 477.57812 302.7006Q477.20312 302.05997 476.35938 302.05997Q475.53125 302.05997 475.14062 302.7006Q474.76562 303.3256 474.76562 304.62247L474.76562 306.35684Q474.76562 307.73184 475.15625 308.40372Q475.5625 309.05997 476.375 309.05997Q477.17188 309.05997 477.5625 308.43497Q477.95312 307.80997 477.96875 306.48184L477.96875 304.7006ZM484.96875 301.29434L484.96875 302.2006L484.76562 302.2006Q483.5 302.23184 482.75 302.96622Q482.0 303.68497 481.875 304.99747Q482.5625 304.23184 483.71875 304.23184Q484.82812 304.23184 485.5 305.0131Q486.17188 305.79434 486.17188 307.04434Q486.17188 308.35684 485.45312 309.15372Q484.73438 309.9506 483.51562 309.9506Q482.29688 309.9506 481.53125 309.0131Q480.78125 308.05997 480.78125 306.5756L480.78125 306.16934Q480.78125 303.80997 481.78125 302.55997Q482.78125 301.30997 484.76562 301.29434L484.96875 301.29434ZM483.54688 305.1381Q482.98438 305.1381 482.51562 305.46622Q482.04688 305.79434 481.85938 306.30997L481.85938 306.7006Q481.85938 307.7631 482.32812 308.40372Q482.8125 309.04434 483.51562 309.04434Q484.25 309.04434 484.67188 308.5131Q485.09375 307.96622 485.09375 307.09122Q485.09375 306.21622 484.67188 305.68497Q484.25 305.1381 483.54688 305.1381Z" fill-rule="nonzero"/><path fill="#4285f4" d="M453.26562 309.8256L452.1875 309.8256L452.1875 302.60684L450.0 303.40372L450.0 302.41934L453.10938 301.24747L453.26562 301.24747L453.26562 309.8256ZM456.84375 309.2631Q456.84375 308.98184 457.0 308.79434Q457.17188 308.60684 457.5 308.60684Q457.84375 308.60684 458.01562 308.79434Q458.1875 308.98184 458.1875 309.2631Q458.1875 309.52872 458.01562 309.71622Q457.84375 309.8881 457.5 309.8881Q457.17188 309.8881 457.0 309.71622Q456.84375 309.52872 456.84375 309.2631ZM464.28125 306.96622L465.46875 306.96622L465.46875 307.84122L464.28125 307.84122L464.28125 309.8256L463.20312 309.8256L463.20312 307.84122L459.3125 307.84122L459.3125 307.2006L463.125 301.29434L464.28125 301.29434L464.28125 306.96622ZM460.54688 306.96622L463.20312 306.96622L463.20312 302.77872L463.0625 303.0131L460.54688 306.96622ZM470.85938 306.0756Q470.53125 306.48184 470.04688 306.73184Q469.57812 306.96622 469.01562 306.96622Q468.28125 306.96622 467.73438 306.60684Q467.1875 306.24747 466.89062 305.59122Q466.59375 304.91934 466.59375 304.12247Q466.59375 303.27872 466.90625 302.59122Q467.23438 301.90372 467.82812 301.54434Q468.4375 301.16934 469.23438 301.16934Q470.5 301.16934 471.21875 302.12247Q471.95312 303.0756 471.95312 304.7006L471.95312 305.0131Q471.95312 307.5131 470.96875 308.65372Q469.98438 309.79434 468.0 309.8256L467.78125 309.8256L467.78125 308.91934L468.01562 308.91934Q469.35938 308.8881 470.07812 308.21622Q470.79688 307.54434 470.85938 306.0756ZM469.1875 306.0756Q469.73438 306.0756 470.1875 305.74747Q470.65625 305.40372 470.875 304.91934L470.875 304.48184Q470.875 303.41934 470.40625 302.74747Q469.9375 302.0756 469.23438 302.0756Q468.51562 302.0756 468.07812 302.62247Q467.65625 303.16934 467.65625 304.0756Q467.65625 304.9506 468.0625 305.5131Q468.48438 306.0756 469.1875 306.0756ZM479.0625 306.18497Q479.0625 308.09122 478.40625 309.02872Q477.76562 309.9506 476.375 309.9506Q475.01562 309.9506 474.35938 309.04434Q473.70312 308.1381 473.67188 306.3256L473.67188 304.8881Q473.67188 302.99747 474.3125 302.09122Q474.96875 301.16934 476.35938 301.16934Q477.73438 301.16934 478.39062 302.05997Q479.04688 302.93497 479.0625 304.77872L479.0625 306.18497ZM477.96875 304.7006Q477.96875 303.3256 477.57812 302.7006Q477.20312 302.05997 476.35938 302.05997Q475.53125 302.05997 475.14062 302.7006Q474.76562 303.3256 474.76562 304.62247L474.76562 306.35684Q474.76562 307.73184 475.15625 308.40372Q475.5625 309.05997 476.375 309.05997Q477.17188 309.05997 477.5625 308.43497Q477.95312 307.80997 477.96875 306.48184L477.96875 304.7006ZM484.96875 301.29434L484.96875 302.2006L484.76562 302.2006Q483.5 302.23184 482.75 302.96622Q482.0 303.68497 481.875 304.99747Q482.5625 304.23184 483.71875 304.23184Q484.82812 304.23184 485.5 305.0131Q486.17188 305.79434 486.17188 307.04434Q486.17188 308.35684 485.45312 309.15372Q484.73438 309.9506 483.51562 309.9506Q482.29688 309.9506 481.53125 309.0131Q480.78125 308.05997 480.78125 306.5756L480.78125 306.16934Q480.78125 303.80997 481.78125 302.55997Q482.78125 301.30997 484.76562 301.29434L484.96875 301.29434ZM483.54688 305.1381Q482.98438 305.1381 482.51562 305.46622Q482.04688 305.79434 481.85938 306.30997L481.85938 306.7006Q481.85938 307.7631 482.32812 308.40372Q482.8125 309.04434 483.51562 309.04434Q484.25 309.04434 484.67188 308.5131Q485.09375 307.96622 485.09375 307.09122Q485.09375 306.21622 484.67188 305.68497Q484.25 305.1381 483.54688 305.1381Z" fill-rule="nonzero"/><path stroke="#4285f4" stroke-width="3.0" stroke-linejoin="round" stroke-linecap="round" d="M519.28125 322.651L520.09375 322.651Q520.875 322.63538 521.3125 322.24475Q521.75 321.85413 521.75 321.18225Q521.75 319.68225 520.25 319.68225Q519.5469 319.68225 519.125 320.0885Q518.71875 320.49475 518.71875 321.151L517.625 321.151Q517.625 320.13538 518.3594 319.4635Q519.1094 318.79163 520.25 318.79163Q521.4531 318.79163 522.1406 319.43225Q522.8281 320.07288 522.8281 321.2135Q522.8281 321.776 522.46875 322.29163Q522.1094 322.80725 521.4844 323.07288Q522.1875 323.29163 522.5625 323.80725Q522.9531 324.32288 522.9531 325.07288Q522.9531 326.2135 522.2031 326.901Q521.4531 327.57288 520.25 327.57288Q519.0625 327.57288 518.2969 326.91663Q517.5469 326.26038 517.5469 325.19788L518.6406 325.19788Q518.6406 325.86975 519.0781 326.276Q519.5156 326.68225 520.2656 326.68225Q521.0469 326.68225 521.4531 326.276Q521.875 325.85413 521.875 325.0885Q521.875 324.35413 521.4219 323.9635Q520.96875 323.55725 520.09375 323.54163L519.28125 323.54163L519.28125 322.651ZM524.84375 326.88538Q524.84375 326.60413 525.0 326.41663Q525.1719 326.22913 525.5 326.22913Q525.84375 326.22913 526.0156 326.41663Q526.1875 326.60413 526.1875 326.88538Q526.1875 327.151 526.0156 327.3385Q525.84375 327.51038 525.5 327.51038Q525.1719 327.51038 525.0 327.3385Q524.84375 327.151 524.84375 326.88538ZM533.21875 319.526L529.6875 327.44788L528.5469 327.44788L532.0625 319.80725L527.4531 319.80725L527.4531 318.91663L533.21875 318.91663L533.21875 319.526ZM538.2656 327.44788L537.1875 327.44788L537.1875 320.22913L535.0 321.026L535.0 320.04163L538.1094 318.86975L538.2656 318.86975L538.2656 327.44788ZM542.2031 323.16663L542.6406 318.91663L547.0156 318.91663L547.0156 319.91663L543.5625 319.91663L543.2969 322.24475Q543.9375 321.86975 544.7344 321.86975Q545.8906 321.86975 546.5781 322.651Q547.2656 323.41663 547.2656 324.72913Q547.2656 326.04163 546.5469 326.80725Q545.84375 327.57288 544.5625 327.57288Q543.4375 327.57288 542.71875 326.94788Q542.0 326.30725 541.90625 325.19788L542.9219 325.19788Q543.03125 325.93225 543.4531 326.30725Q543.875 326.68225 544.5625 326.68225Q545.3125 326.68225 545.75 326.16663Q546.1875 325.651 546.1875 324.74475Q546.1875 323.88538 545.71875 323.36975Q545.25 322.85413 544.46875 322.85413Q543.7656 322.85413 543.3594 323.151L543.0781 323.38538L542.2031 323.16663ZM553.28125 324.5885L554.46875 324.5885L554.46875 325.4635L553.28125 325.4635L553.28125 327.44788L552.2031 327.44788L552.2031 325.4635L548.3125 325.4635L548.3125 324.82288L552.125 318.91663L553.28125 318.91663L553.28125 324.5885ZM549.5469 324.5885L552.2031 324.5885L552.2031 320.401L552.0625 320.63538L549.5469 324.5885Z" fill-rule="nonzero"/><path fill="#ffffff" d="M519.28125 322.651L520.09375 322.651Q520.875 322.63538 521.3125 322.24475Q521.75 321.85413 521.75 321.18225Q521.75 319.68225 520.25 319.68225Q519.5469 319.68225 519.125 320.0885Q518.71875 320.49475 518.71875 321.151L517.625 321.151Q517.625 320.13538 518.3594 319.4635Q519.1094 318.79163 520.25 318.79163Q521.4531 318.79163 522.1406 319.43225Q522.8281 320.07288 522.8281 321.2135Q522.8281 321.776 522.46875 322.29163Q522.1094 322.80725 521.4844 323.07288Q522.1875 323.29163 522.5625 323.80725Q522.9531 324.32288 522.9531 325.07288Q522.9531 326.2135 522.2031 326.901Q521.4531 327.57288 520.25 327.57288Q519.0625 327.57288 518.2969 326.91663Q517.5469 326.26038 517.5469 325.19788L518.6406 325.19788Q518.6406 325.86975 519.0781 326.276Q519.5156 326.68225 520.2656 326.68225Q521.0469 326.68225 521.4531 326.276Q521.875 325.85413 521.875 325.0885Q521.875 324.35413 521.4219 323.9635Q520.96875 323.55725 520.09375 323.54163L519.28125 323.54163L519.28125 322.651ZM524.84375 326.88538Q524.84375 326.60413 525.0 326.41663Q525.1719 326.22913 525.5 326.22913Q525.84375 326.22913 526.0156 326.41663Q526.1875 326.60413 526.1875 326.88538Q526.1875 327.151 526.0156 327.3385Q525.84375 327.51038 525.5 327.51038Q525.1719 327.51038 525.0 327.3385Q524.84375 327.151 524.84375 326.88538ZM533.21875 319.526L529.6875 327.44788L528.5469 327.44788L532.0625 319.80725L527.4531 319.80725L527.4531 318.91663L533.21875 318.91663L533.21875 319.526ZM538.2656 327.44788L537.1875 327.44788L537.1875 320.22913L535.0 321.026L535.0 320.04163L538.1094 318.86975L538.2656 318.86975L538.2656 327.44788ZM542.2031 323.16663L542.6406 318.91663L547.0156 318.91663L547.0156 319.91663L543.5625 319.91663L543.2969 322.24475Q543.9375 321.86975 544.7344 321.86975Q545.8906 321.86975 546.5781 322.651Q547.2656 323.41663 547.2656 324.72913Q547.2656 326.04163 546.5469 326.80725Q545.84375 327.57288 544.5625 327.57288Q543.4375 327.57288 542.71875 326.94788Q542.0 326.30725 541.90625 325.19788L542.9219 325.19788Q543.03125 325.93225 543.4531 326.30725Q543.875 326.68225 544.5625 326.68225Q545.3125 326.68225 545.75 326.16663Q546.1875 325.651 546.1875 324.74475Q546.1875 323.88538 545.71875 323.36975Q545.25 322.85413 544.46875 322.85413Q543.7656 322.85413 543.3594 323.151L543.0781 323.38538L542.2031 323.16663ZM553.28125 324.5885L554.46875 324.5885L554.46875 325.4635L553.28125 325.4635L553.28125 327.44788L552.2031 327.44788L552.2031 325.4635L548.3125 325.4635L548.3125 324.82288L552.125 318.91663L553.28125 318.91663L553.28125 324.5885ZM549.5469 324.5885L552.2031 324.5885L552.2031 320.401L552.0625 320.63538L549.5469 324.5885Z" fill-rule="nonzero"/><path fill="#000000" d="M27.300013 233.5L27.206263 232.39062Q28.018763 232.26562 28.425013 231.82812Q28.831263 231.375 28.831263 230.73438Q28.831263 229.98438 28.253138 229.45312Q27.675013 228.92188 26.737513 228.92188Q25.831263 228.92188 25.315638 229.4375Q24.784388 229.9375 24.784388 230.76562Q24.784388 231.26562 25.018763 231.6875Q25.253138 232.09375 25.612513 232.32812L25.487513 233.3125L21.081263 232.48438L21.081263 228.20312L22.081263 228.20312L22.081263 231.64062L24.393763 232.09375Q23.846888 231.32812 23.846888 230.48438Q23.846888 229.35938 24.628138 228.59375Q25.409388 227.8125 26.643763 227.8125Q27.800013 227.8125 28.659388 228.48438Q29.690638 229.3125 29.690638 230.73438Q29.690638 231.90625 29.034388 232.65625Q28.378138 233.39062 27.300013 233.5ZM28.612513 220.90625L29.534388 220.75Q29.628138 221.20312 29.628138 221.54688Q29.628138 222.125 29.456263 222.4375Q29.268763 222.75 28.971888 222.89062Q28.675013 223.01562 27.721888 223.01562L24.143763 223.01562L24.143763 223.78125L23.331263 223.78125L23.331263 223.01562L21.784388 223.01562L21.159388 221.96875L23.331263 221.96875L23.331263 220.90625L24.143763 220.90625L24.143763 221.96875L27.784388 221.96875Q28.237513 221.96875 28.362513 221.92188Q28.487513 221.85938 28.565638 221.73438Q28.643763 221.60938 28.643763 221.375Q28.643763 221.1875 28.612513 220.90625ZM22.175013 220.20312L20.956263 220.20312L20.956263 219.14062L22.175013 219.14062L22.175013 220.20312ZM29.550013 220.20312L23.331263 220.20312L23.331263 219.14062L29.550013 219.14062L29.550013 220.20312ZM29.550013 217.20312L23.331263 217.20312L23.331263 216.26562L24.206263 216.26562Q23.737513 215.96875 23.471888 215.48438Q23.190638 215.0 23.190638 214.375Q23.190638 213.6875 23.471888 213.25Q23.753138 212.79688 24.268763 212.625Q23.190638 211.875 23.190638 210.70312Q23.190638 209.76562 23.706263 209.28125Q24.206263 208.78125 25.284388 208.78125L29.550013 208.78125L29.550013 209.82812L25.628138 209.82812Q25.003138 209.82812 24.721888 209.9375Q24.440638 210.03125 24.268763 210.29688Q24.096888 210.5625 24.096888 210.9375Q24.096888 211.59375 24.534388 212.03125Q24.971888 212.45312 25.940638 212.45312L29.550013 212.45312L29.550013 213.51562L25.503138 213.51562Q24.800013 213.51562 24.456263 213.78125Q24.096888 214.03125 24.096888 214.60938Q24.096888 215.0625 24.331263 215.4375Q24.565638 215.8125 25.018763 215.98438Q25.471888 216.15625 26.315638 216.15625L29.550013 216.15625L29.550013 217.20312ZM27.550013 201.95312L27.675013 200.85938Q28.628138 201.10938 29.159388 201.8125Q29.690638 202.51562 29.690638 203.59375Q29.690638 204.95312 28.846888 205.76562Q28.003138 206.5625 26.487513 206.5625Q24.925013 206.5625 24.065638 205.75Q23.190638 204.9375 23.190638 203.65625Q23.190638 202.40625 24.034388 201.625Q24.878138 200.82812 26.425013 200.82812Q26.518763 200.82812 26.706263 200.82812L26.706263 205.46875Q27.737513 205.40625 28.284388 204.89062Q28.815638 204.375 28.815638 203.59375Q28.815638 203.01562 28.518763 202.60938Q28.206263 202.1875 27.550013 201.95312ZM25.846888 205.40625L25.846888 201.9375Q25.050013 202.0 24.659388 202.32812Q24.050013 202.84375 24.050013 203.64062Q24.050013 204.375 24.534388 204.875Q25.018763 205.35938 25.846888 205.40625ZM27.690638 199.625L27.534388 198.59375Q28.159388 198.5 28.487513 198.10938Q28.815638 197.70312 28.815638 196.96875Q28.815638 196.25 28.534388 195.90625Q28.237513 195.54688 27.831263 195.54688Q27.471888 195.54688 27.268763 195.85938Q27.128138 196.07812 26.909388 196.9375Q26.612513 198.09375 26.409388 198.54688Q26.190638 198.98438 25.815638 199.21875Q25.440638 199.45312 24.971888 199.45312Q24.565638 199.45312 24.206263 199.26562Q23.846888 199.07812 23.612513 198.75Q23.440638 198.5 23.315638 198.07812Q23.190638 197.65625 23.190638 197.15625Q23.190638 196.4375 23.409388 195.89062Q23.612513 195.32812 23.971888 195.0625Q24.331263 194.79688 24.925013 194.70312L25.065638 195.73438Q24.596888 195.79688 24.331263 196.14062Q24.050013 196.46875 24.050013 197.09375Q24.050013 197.8125 24.300013 198.125Q24.534388 198.4375 24.862513 198.4375Q25.065638 198.4375 25.221888 198.3125Q25.393763 198.17188 25.503138 197.90625Q25.565638 197.75 25.768763 196.96875Q26.081263 195.84375 26.268763 195.40625Q26.456263 194.96875 26.815638 194.71875Q27.175013 194.46875 27.721888 194.46875Q28.253138 194.46875 28.721888 194.78125Q29.175013 195.07812 29.440638 195.65625Q29.690638 196.23438 29.690638 196.96875Q29.690638 198.1875 29.190638 198.82812Q28.675013 199.45312 27.690638 199.625ZM28.784388 185.14062Q29.284388 185.73438 29.487513 186.28125Q29.690638 186.8125 29.690638 187.4375Q29.690638 188.46875 29.190638 189.01562Q28.690638 189.5625 27.909388 189.5625Q27.456263 189.5625 27.081263 189.35938Q26.690638 189.15625 26.471888 188.8125Q26.237513 188.46875 26.128138 188.04688Q26.034388 187.75 25.956263 187.10938Q25.815638 185.84375 25.596888 185.23438Q25.378138 185.23438 25.331263 185.23438Q24.675013 185.23438 24.409388 185.53125Q24.065638 185.9375 24.065638 186.73438Q24.065638 187.46875 24.331263 187.82812Q24.581263 188.1875 25.237513 188.35938L25.096888 189.39062Q24.440638 189.25 24.034388 188.92188Q23.628138 188.59375 23.409388 187.98438Q23.190638 187.375 23.190638 186.57812Q23.190638 185.78125 23.378138 185.28125Q23.565638 184.78125 23.846888 184.54688Q24.128138 184.3125 24.565638 184.21875Q24.831263 184.17188 25.534388 184.17188L26.940638 184.17188Q28.409388 184.17188 28.800013 184.10938Q29.190638 184.03125 29.550013 183.82812L29.550013 184.9375Q29.221888 185.09375 28.784388 185.14062ZM26.425013 185.23438Q26.659388 185.8125 26.831263 186.95312Q26.925013 187.60938 27.050013 187.875Q27.159388 188.14062 27.378138 188.29688Q27.596888 188.4375 27.878138 188.4375Q28.300013 188.4375 28.581263 188.125Q28.862513 187.79688 28.862513 187.1875Q28.862513 186.57812 28.596888 186.10938Q28.331263 185.625 27.862513 185.40625Q27.503138 185.23438 26.815638 185.23438L26.425013 185.23438ZM29.550013 180.48438L23.331263 182.84375L23.331263 181.73438L27.050013 180.39062Q27.659388 180.1875 28.300013 180.0Q27.815638 179.85938 27.128138 179.60938L23.331263 178.21875L23.331263 177.14062L29.550013 179.5L29.550013 180.48438ZM30.065638 177.40625L30.221888 176.375Q30.690638 176.3125 30.909388 176.01562Q31.206263 175.625 31.206263 174.95312Q31.206263 174.21875 30.909388 173.82812Q30.612513 173.42188 30.096888 173.28125Q29.768763 173.1875 28.737513 173.20312Q29.550013 173.89062 29.550013 174.92188Q29.550013 176.20312 28.628138 176.90625Q27.690638 177.60938 26.409388 177.60938Q25.518763 177.60938 24.768763 177.29688Q24.003138 176.96875 23.596888 176.35938Q23.190638 175.75 23.190638 174.92188Q23.190638 173.8125 24.081263 173.09375L23.331263 173.09375L23.331263 172.125L28.706263 172.125Q30.159388 172.125 30.768763 172.42188Q31.378138 172.71875 31.721888 173.35938Q32.08126 174.0 32.08126 174.9375Q32.08126 176.04688 31.581263 176.73438Q31.081263 177.42188 30.065638 177.40625ZM26.331263 176.53125Q27.550013 176.53125 28.112513 176.04688Q28.675013 175.5625 28.675013 174.82812Q28.675013 174.09375 28.112513 173.60938Q27.550013 173.10938 26.362513 173.10938Q25.221888 173.10938 24.643763 173.625Q24.065638 174.125 24.065638 174.84375Q24.065638 175.54688 24.643763 176.04688Q25.206263 176.53125 26.331263 176.53125ZM29.550013 169.90625L28.346888 169.90625L28.346888 168.70312L29.550013 168.70312L29.550013 169.90625ZM32.08126 162.1875Q30.971888 163.0625 29.503138 163.67188Q28.018763 164.26562 26.440638 164.26562Q25.050013 164.26562 23.768763 163.82812Q22.284388 163.29688 20.815638 162.1875L20.815638 161.4375Q22.034388 162.14062 22.550013 162.375Q23.362513 162.73438 24.237513 162.9375Q25.331263 163.1875 26.440638 163.1875Q29.268763 163.1875 32.08126 161.4375L32.08126 162.1875ZM27.690638 160.625L27.534388 159.59375Q28.159388 159.5 28.487513 159.10938Q28.815638 158.70312 28.815638 157.96875Q28.815638 157.25 28.534388 156.90625Q28.237513 156.54688 27.831263 156.54688Q27.471888 156.54688 27.268763 156.85938Q27.128138 157.07812 26.909388 157.9375Q26.612513 159.09375 26.409388 159.54688Q26.190638 159.98438 25.815638 160.21875Q25.440638 160.45312 24.971888 160.45312Q24.565638 160.45312 24.206263 160.26562Q23.846888 160.07812 23.612513 159.75Q23.440638 159.5 23.315638 159.07812Q23.190638 158.65625 23.190638 158.15625Q23.190638 157.4375 23.409388 156.89062Q23.612513 156.32812 23.971888 156.0625Q24.331263 155.79688 24.925013 155.70312L25.065638 156.73438Q24.596888 156.79688 24.331263 157.14062Q24.050013 157.46875 24.050013 158.09375Q24.050013 158.8125 24.300013 159.125Q24.534388 159.4375 24.862513 159.4375Q25.065638 159.4375 25.221888 159.3125Q25.393763 159.17188 25.503138 158.90625Q25.565638 158.75 25.768763 157.96875Q26.081263 156.84375 26.268763 156.40625Q26.456263 155.96875 26.815638 155.71875Q27.175013 155.46875 27.721888 155.46875Q28.253138 155.46875 28.721888 155.78125Q29.175013 156.07812 29.440638 156.65625Q29.690638 157.23438 29.690638 157.96875Q29.690638 159.1875 29.190638 159.82812Q28.675013 160.45312 27.690638 160.625ZM27.550013 148.95312L27.675013 147.85938Q28.628138 148.10938 29.159388 148.8125Q29.690638 149.51562 29.690638 150.59375Q29.690638 151.95312 28.846888 152.76562Q28.003138 153.5625 26.487513 153.5625Q24.925013 153.5625 24.065638 152.75Q23.190638 151.9375 23.190638 150.65625Q23.190638 149.40625 24.034388 148.625Q24.878138 147.82812 26.425013 147.82812Q26.518763 147.82812 26.706263 147.82812L26.706263 152.46875Q27.737513 152.40625 28.284388 151.89062Q28.815638 151.375 28.815638 150.59375Q28.815638 150.01562 28.518763 149.60938Q28.206263 149.1875 27.550013 148.95312ZM25.846888 152.40625L25.846888 148.9375Q25.050013 149.0 24.659388 149.32812Q24.050013 149.84375 24.050013 150.64062Q24.050013 151.375 24.534388 151.875Q25.018763 152.35938 25.846888 152.40625ZM27.268763 142.14062L27.409388 141.10938Q28.471888 141.28125 29.081263 141.98438Q29.690638 142.6875 29.690638 143.70312Q29.690638 144.98438 28.862513 145.76562Q28.018763 146.53125 26.456263 146.53125Q25.456263 146.53125 24.706263 146.20312Q23.940638 145.85938 23.565638 145.1875Q23.190638 144.5 23.190638 143.6875Q23.190638 142.6875 23.706263 142.04688Q24.206263 141.39062 25.159388 141.20312L25.315638 142.23438Q24.690638 142.375 24.378138 142.75Q24.050013 143.125 24.050013 143.65625Q24.050013 144.45312 24.628138 144.95312Q25.190638 145.45312 26.425013 145.45312Q27.690638 145.45312 28.253138 144.96875Q28.815638 144.48438 28.815638 143.71875Q28.815638 143.09375 28.440638 142.6875Q28.065638 142.26562 27.268763 142.14062ZM32.08126 139.51562L32.08126 140.26562Q29.268763 138.51562 26.440638 138.51562Q25.346888 138.51562 24.253138 138.76562Q23.378138 138.96875 22.565638 139.32812Q22.050013 139.5625 20.815638 140.26562L20.815638 139.51562Q22.284388 138.42188 23.768763 137.89062Q25.050013 137.4375 26.440638 137.4375Q28.018763 137.4375 29.503138 138.04688Q30.971888 138.65625 32.08126 139.51562Z" fill-rule="nonzero"/><path fill="#000000" d="M65.05 332.21564Q65.05 330.6844 65.3625 329.7625Q65.675 328.825 66.28438 328.325Q66.90938 327.825 67.84688 327.825Q68.53438 327.825 69.05 328.10626Q69.58125 328.3875 69.925 328.91876Q70.26875 329.4344 70.45625 330.1844Q70.64375 330.9344 70.64375 332.21564Q70.64375 333.73126 70.33125 334.65314Q70.03438 335.575 69.40938 336.09064Q68.8 336.59064 67.84688 336.59064Q66.6125 336.59064 65.89375 335.7Q65.05 334.6375 65.05 332.21564ZM66.12813 332.21564Q66.12813 334.325 66.62813 335.02814Q67.12813 335.73126 67.84688 335.73126Q68.58125 335.73126 69.06563 335.02814Q69.56563 334.325 69.56563 332.21564Q69.56563 330.09064 69.06563 329.40314Q68.58125 328.7 67.83125 328.7Q67.1125 328.7 66.675 329.3094Q66.12813 330.09064 66.12813 332.21564Z" fill-rule="nonzero"/><path fill="#000000" d="M63.596874 233.13437L63.596874 234.15L57.909374 234.15Q57.909374 233.775 58.034374 233.41562Q58.253124 232.8375 58.721874 232.275Q59.20625 231.7125 60.1125 230.97812Q61.51875 229.82187 62.003124 229.15Q62.503124 228.47812 62.503124 227.88437Q62.503124 227.25937 62.05 226.8375Q61.596874 226.4 60.878124 226.4Q60.1125 226.4 59.659374 226.85312Q59.20625 227.30624 59.190624 228.11874L58.1125 228.00937Q58.221874 226.79062 58.940624 226.16562Q59.675 225.525 60.909374 225.525Q62.14375 225.525 62.8625 226.2125Q63.58125 226.9 63.58125 227.91562Q63.58125 228.43124 63.3625 228.93124Q63.159374 229.41562 62.659374 229.97812Q62.175 230.525 61.05 231.47812Q60.096874 232.275 59.815624 232.57187Q59.55 232.85312 59.378124 233.13437L63.596874 233.13437ZM65.05 229.91562Q65.05 228.38437 65.3625 227.4625Q65.675 226.525 66.28438 226.025Q66.90938 225.525 67.84688 225.525Q68.53438 225.525 69.05 225.80624Q69.58125 226.0875 69.925 226.61874Q70.26875 227.13437 70.45625 227.88437Q70.64375 228.63437 70.64375 229.91562Q70.64375 231.43124 70.33125 232.35312Q70.03438 233.275 69.40938 233.79062Q68.8 234.29062 67.84688 234.29062Q66.6125 234.29062 65.89375 233.4Q65.05 232.3375 65.05 229.91562ZM66.12813 229.91562Q66.12813 232.025 66.62813 232.72812Q67.12813 233.43124 67.84688 233.43124Q68.58125 233.43124 69.06563 232.72812Q69.56563 232.025 69.56563 229.91562Q69.56563 227.79062 69.06563 227.10312Q68.58125 226.4 67.83125 226.4Q67.1125 226.4 66.675 227.00937Q66.12813 227.79062 66.12813 229.91562Z" fill-rule="nonzero"/><path fill="#000000" d="M61.425 131.85L61.425 129.7875L57.70625 129.7875L57.70625 128.81876L61.628124 123.256256L62.4875 123.256256L62.4875 128.81876L63.64375 128.81876L63.64375 129.7875L62.4875 129.7875L62.4875 131.85L61.425 131.85ZM61.425 128.81876L61.425 124.95938L58.7375 128.81876L61.425 128.81876ZM65.05 127.61563Q65.05 126.08438 65.3625 125.162506Q65.675 124.225006 66.28438 123.725006Q66.90938 123.225006 67.84688 123.225006Q68.53438 123.225006 69.05 123.506256Q69.58125 123.787506 69.925 124.318756Q70.26875 124.83438 70.45625 125.58438Q70.64375 126.33438 70.64375 127.61563Q70.64375 129.13126 70.33125 130.05313Q70.03438 130.975 69.40938 131.49063Q68.8 131.99063 67.84688 131.99063Q66.6125 131.99063 65.89375 131.1Q65.05 130.0375 65.05 127.61563ZM66.12813 127.61563Q66.12813 129.725 66.62813 130.42813Q67.12813 131.13126 67.84688 131.13126Q68.58125 131.13126 69.06563 130.42813Q69.56563 129.725 69.56563 127.61563Q69.56563 125.49063 69.06563 124.80313Q68.58125 124.100006 67.83125 124.100006Q67.1125 124.100006 66.675 124.70938Q66.12813 125.49063 66.12813 127.61563Z" fill-rule="nonzero"/><path fill="#000000" d="M63.51875 23.065624L62.471874 23.14375Q62.33125 22.51875 62.08125 22.2375Q61.64375 21.784374 61.01875 21.784374Q60.51875 21.784374 60.128124 22.065624Q59.64375 22.440624 59.346874 23.14375Q59.065624 23.83125 59.05 25.1125Q59.425 24.534374 59.971874 24.253124Q60.534374 23.971874 61.14375 23.971874Q62.190624 23.971874 62.925 24.753124Q63.675 25.534374 63.675 26.753124Q63.675 27.565624 63.315624 28.26875Q62.971874 28.95625 62.3625 29.33125Q61.753124 29.690624 60.9875 29.690624Q59.659374 29.690624 58.83125 28.721874Q58.003124 27.753124 58.003124 25.534374Q58.003124 23.034374 58.925 21.909374Q59.721874 20.925 61.08125 20.925Q62.096874 20.925 62.7375 21.503124Q63.39375 22.065624 63.51875 23.065624ZM59.221874 26.76875Q59.221874 27.315624 59.440624 27.815624Q59.675 28.3 60.08125 28.565624Q60.503124 28.83125 60.971874 28.83125Q61.628124 28.83125 62.1125 28.3Q62.596874 27.753124 62.596874 26.83125Q62.596874 25.940624 62.1125 25.425Q61.64375 24.909374 60.925 24.909374Q60.20625 24.909374 59.70625 25.425Q59.221874 25.940624 59.221874 26.76875ZM65.05 25.315624Q65.05 23.784374 65.3625 22.8625Q65.675 21.925 66.28438 21.425Q66.90938 20.925 67.84688 20.925Q68.53438 20.925 69.05 21.20625Q69.58125 21.4875 69.925 22.01875Q70.26875 22.534374 70.45625 23.284374Q70.64375 24.034374 70.64375 25.315624Q70.64375 26.83125 70.33125 27.753124Q70.03438 28.675 69.40938 29.190624Q68.8 29.690624 67.84688 29.690624Q66.6125 29.690624 65.89375 28.8Q65.05 27.7375 65.05 25.315624ZM66.12813 25.315624Q66.12813 27.425 66.62813 28.128124Q67.12813 28.83125 67.84688 28.83125Q68.58125 28.83125 69.06563 28.128124Q69.56563 27.425 69.56563 25.315624Q69.56563 23.190624 69.06563 22.503124Q68.58125 21.8 67.83125 21.8Q67.1125 21.8 66.675 22.409374Q66.12813 23.190624 66.12813 25.315624Z" fill-rule="nonzero"/><path fill="#000000" d="M99.54114 349.45L98.55676 349.45L98.55676 340.85626L99.61926 340.85626L99.61926 343.91876Q100.29114 343.09064 101.32239 343.09064Q101.90051 343.09064 102.40051 343.325Q102.91614 343.54376 103.24426 343.96564Q103.58801 344.3875 103.77551 344.98126Q103.96301 345.575 103.96301 346.2469Q103.96301 347.84064 103.16614 348.71564Q102.36926 349.59064 101.27551 349.59064Q100.16614 349.59064 99.54114 348.66876L99.54114 349.45ZM99.52551 346.29376Q99.52551 347.40314 99.83801 347.90314Q100.33801 348.71564 101.18176 348.71564Q101.86926 348.71564 102.36926 348.1219Q102.88489 347.52814 102.88489 346.325Q102.88489 345.10626 102.40051 344.52814Q101.91614 343.95 101.22864 343.95Q100.54114 343.95 100.02551 344.5594Q99.52551 345.15314 99.52551 346.29376ZM105.55676 349.45L105.55676 343.23126L106.50989 343.23126L106.50989 344.16876Q106.86926 343.5125 107.16614 343.3094Q107.47864 343.09064 107.85364 343.09064Q108.38489 343.09064 108.93176 343.41876L108.57239 344.40314Q108.18176 344.16876 107.80676 344.16876Q107.44739 344.16876 107.16614 344.3875Q106.90051 344.59064 106.79114 344.96564Q106.60364 345.52814 106.60364 346.1844L106.60364 349.45L105.55676 349.45ZM113.63489 348.6844Q113.04114 349.1844 112.49426 349.3875Q111.96301 349.59064 111.33801 349.59064Q110.30676 349.59064 109.75989 349.09064Q109.21301 348.59064 109.21301 347.8094Q109.21301 347.35626 109.41614 346.98126Q109.61926 346.59064 109.96301 346.3719Q110.30676 346.1375 110.72864 346.02814Q111.02551 345.9344 111.66614 345.85626Q112.93176 345.71564 113.54114 345.4969Q113.54114 345.27814 113.54114 345.23126Q113.54114 344.575 113.24426 344.3094Q112.83801 343.96564 112.04114 343.96564Q111.30676 343.96564 110.94739 344.23126Q110.58801 344.48126 110.41614 345.1375L109.38489 344.9969Q109.52551 344.34064 109.85364 343.9344Q110.18176 343.52814 110.79114 343.3094Q111.40051 343.09064 112.19739 343.09064Q112.99426 343.09064 113.49426 343.27814Q113.99426 343.46564 114.22864 343.7469Q114.46301 344.02814 114.55676 344.46564Q114.60364 344.73126 114.60364 345.4344L114.60364 346.84064Q114.60364 348.3094 114.66614 348.7Q114.74426 349.09064 114.94739 349.45L113.83801 349.45Q113.68176 349.1219 113.63489 348.6844ZM113.54114 346.325Q112.96301 346.5594 111.82239 346.73126Q111.16614 346.825 110.90051 346.95Q110.63489 347.0594 110.47864 347.27814Q110.33801 347.4969 110.33801 347.77814Q110.33801 348.2 110.65051 348.48126Q110.97864 348.7625 111.58801 348.7625Q112.19739 348.7625 112.66614 348.4969Q113.15051 348.23126 113.36926 347.7625Q113.54114 347.40314 113.54114 346.71564L113.54114 346.325ZM116.57239 342.075L116.57239 340.85626L117.63489 340.85626L117.63489 342.075L116.57239 342.075ZM116.57239 349.45L116.57239 343.23126L117.63489 343.23126L117.63489 349.45L116.57239 349.45ZM119.57239 349.45L119.57239 343.23126L120.50989 343.23126L120.50989 344.10626Q121.19739 343.09064 122.49426 343.09064Q123.05676 343.09064 123.52551 343.29376Q124.00989 343.4969 124.24426 343.825Q124.47864 344.15314 124.57239 344.59064Q124.61926 344.8875 124.61926 345.6219L124.61926 349.45L123.57239 349.45L123.57239 345.66876Q123.57239 345.0125 123.44739 344.7Q123.32239 344.3875 123.00989 344.2Q122.69739 343.9969 122.27551 343.9969Q121.60364 343.9969 121.10364 344.4344Q120.61926 344.85626 120.61926 346.04376L120.61926 349.45L119.57239 349.45ZM126.82239 349.45L126.82239 344.04376L125.88489 344.04376L125.88489 343.23126L126.82239 343.23126L126.82239 342.5594Q126.82239 341.9344 126.93176 341.6375Q127.08801 341.21564 127.46301 340.96564Q127.85364 340.71564 128.54114 340.71564Q128.99426 340.71564 129.52551 340.825L129.36926 341.73126Q129.04114 341.6844 128.74426 341.6844Q128.25989 341.6844 128.05676 341.8875Q127.86926 342.09064 127.86926 342.65314L127.86926 343.23126L129.08801 343.23126L129.08801 344.04376L127.86926 344.04376L127.86926 349.45L126.82239 349.45ZM133.65051 349.45L133.65051 348.52814Q132.91614 349.59064 131.66614 349.59064Q131.11926 349.59064 130.63489 349.3875Q130.16614 349.16876 129.93176 348.85626Q129.69739 348.52814 129.60364 348.0594Q129.54114 347.7625 129.54114 347.075L129.54114 343.23126L130.60364 343.23126L130.60364 346.6844Q130.60364 347.4969 130.66614 347.79376Q130.75989 348.2 131.07239 348.45Q131.40051 348.6844 131.88489 348.6844Q132.35364 348.6844 132.75989 348.45Q133.18176 348.2 133.35364 347.77814Q133.54114 347.35626 133.54114 346.5594L133.54114 343.23126L134.58801 343.23126L134.58801 349.45L133.65051 349.45ZM140.63489 347.16876L141.66614 347.3094Q141.49426 348.3719 140.79114 348.98126Q140.08801 349.59064 139.07239 349.59064Q137.79114 349.59064 137.00989 348.7625Q136.24426 347.91876 136.24426 346.35626Q136.24426 345.35626 136.57239 344.60626Q136.91614 343.84064 137.58801 343.46564Q138.27551 343.09064 139.08801 343.09064Q140.08801 343.09064 140.72864 343.60626Q141.38489 344.10626 141.57239 345.0594L140.54114 345.21564Q140.40051 344.59064 140.02551 344.27814Q139.65051 343.95 139.11926 343.95Q138.32239 343.95 137.82239 344.52814Q137.32239 345.09064 137.32239 346.325Q137.32239 347.59064 137.80676 348.15314Q138.29114 348.71564 139.05676 348.71564Q139.68176 348.71564 140.08801 348.34064Q140.50989 347.96564 140.63489 347.16876ZM142.57239 349.45L142.57239 340.85626L143.63489 340.85626L143.63489 345.7625L146.11926 343.23126L147.49426 343.23126L145.10364 345.52814L147.72864 349.45L146.43176 349.45L144.36926 346.2625L143.63489 346.98126L143.63489 349.45L142.57239 349.45ZM148.86926 349.45L148.86926 348.2469L150.07239 348.2469L150.07239 349.45L148.86926 349.45ZM155.63489 347.16876L156.66614 347.3094Q156.49426 348.3719 155.79114 348.98126Q155.08801 349.59064 154.07239 349.59064Q152.79114 349.59064 152.00989 348.7625Q151.24426 347.91876 151.24426 346.35626Q151.24426 345.35626 151.57239 344.60626Q151.91614 343.84064 152.58801 343.46564Q153.27551 343.09064 154.08801 343.09064Q155.08801 343.09064 155.72864 343.60626Q156.38489 344.10626 156.57239 345.0594L155.54114 345.21564Q155.40051 344.59064 155.02551 344.27814Q154.65051 343.95 154.11926 343.95Q153.32239 343.95 152.82239 344.52814Q152.32239 345.09064 152.32239 346.325Q152.32239 347.59064 152.80676 348.15314Q153.29114 348.71564 154.05676 348.71564Q154.68176 348.71564 155.08801 348.34064Q155.50989 347.96564 155.63489 347.16876ZM157.55676 349.45L157.55676 343.23126L158.50989 343.23126L158.50989 344.16876Q158.86926 343.5125 159.16614 343.3094Q159.47864 343.09064 159.85364 343.09064Q160.38489 343.09064 160.93176 343.41876L160.57239 344.40314Q160.18176 344.16876 159.80676 344.16876Q159.44739 344.16876 159.16614 344.3875Q158.90051 344.59064 158.79114 344.96564Q158.60364 345.52814 158.60364 346.1844L158.60364 349.45L157.55676 349.45Z" fill-rule="nonzero"/><path fill="#000000" d="M188.79826 349.45L188.79826 343.23126L189.75139 343.23126L189.75139 344.16876Q190.11076 343.5125 190.40764 343.3094Q190.72014 343.09064 191.09514 343.09064Q191.62639 343.09064 192.17326 343.41876L191.81389 344.40314Q191.42326 344.16876 191.04826 344.16876Q190.68889 344.16876 190.40764 344.3875Q190.14201 344.59064 190.03264 344.96564Q189.84514 345.52814 189.84514 346.1844L189.84514 349.45L188.79826 349.45ZM196.89201 349.45L196.89201 348.52814Q196.15764 349.59064 194.90764 349.59064Q194.36076 349.59064 193.87639 349.3875Q193.40764 349.16876 193.17326 348.85626Q192.93889 348.52814 192.84514 348.0594Q192.78264 347.7625 192.78264 347.075L192.78264 343.23126L193.84514 343.23126L193.84514 346.6844Q193.84514 347.4969 193.90764 347.79376Q194.00139 348.2 194.31389 348.45Q194.64201 348.6844 195.12639 348.6844Q195.59514 348.6844 196.00139 348.45Q196.42326 348.2 196.59514 347.77814Q196.78264 347.35626 196.78264 346.5594L196.78264 343.23126L197.82951 343.23126L197.82951 349.45L196.89201 349.45ZM199.81389 349.45L199.81389 343.23126L200.75139 343.23126L200.75139 344.10626Q201.43889 343.09064 202.73576 343.09064Q203.29826 343.09064 203.76701 343.29376Q204.25139 343.4969 204.48576 343.825Q204.72014 344.15314 204.81389 344.59064Q204.86076 344.8875 204.86076 345.6219L204.86076 349.45L203.81389 349.45L203.81389 345.66876Q203.81389 345.0125 203.68889 344.7Q203.56389 344.3875 203.25139 344.2Q202.93889 343.9969 202.51701 343.9969Q201.84514 343.9969 201.34514 344.4344Q200.86076 344.85626 200.86076 346.04376L200.86076 349.45L199.81389 349.45Z" fill-rule="nonzero"/><path fill="#000000" d="M233.53975 349.45L233.53975 343.23126L234.49287 343.23126L234.49287 344.16876Q234.85225 343.5125 235.14912 343.3094Q235.46162 343.09064 235.83662 343.09064Q236.36787 343.09064 236.91475 343.41876L236.55537 344.40314Q236.16475 344.16876 235.78975 344.16876Q235.43037 344.16876 235.14912 344.3875Q234.8835 344.59064 234.77412 344.96564Q234.58662 345.52814 234.58662 346.1844L234.58662 349.45L233.53975 349.45ZM241.6335 349.45L241.6335 348.52814Q240.89912 349.59064 239.64912 349.59064Q239.10225 349.59064 238.61787 349.3875Q238.14912 349.16876 237.91475 348.85626Q237.68037 348.52814 237.58662 348.0594Q237.52412 347.7625 237.52412 347.075L237.52412 343.23126L238.58662 343.23126L238.58662 346.6844Q238.58662 347.4969 238.64912 347.79376Q238.74287 348.2 239.05537 348.45Q239.3835 348.6844 239.86787 348.6844Q240.33662 348.6844 240.74287 348.45Q241.16475 348.2 241.33662 347.77814Q241.52412 347.35626 241.52412 346.5594L241.52412 343.23126L242.571 343.23126L242.571 349.45L241.6335 349.45ZM244.55537 349.45L244.55537 343.23126L245.49287 343.23126L245.49287 344.10626Q246.18037 343.09064 247.47725 343.09064Q248.03975 343.09064 248.5085 343.29376Q248.99287 343.4969 249.22725 343.825Q249.46162 344.15314 249.55537 344.59064Q249.60225 344.8875 249.60225 345.6219L249.60225 349.45L248.55537 349.45L248.55537 345.66876Q248.55537 345.0125 248.43037 344.7Q248.30537 344.3875 247.99287 344.2Q247.68037 343.9969 247.2585 343.9969Q246.58662 343.9969 246.08662 344.4344Q245.60225 344.85626 245.60225 346.04376L245.60225 349.45L244.55537 349.45ZM254.1335 346.8719L254.1335 345.8094L257.38348 345.8094L257.38348 346.8719L254.1335 346.8719ZM258.13348 346.8719L258.13348 345.8094L261.38348 345.8094L261.38348 346.8719L258.13348 346.8719ZM262.55536 349.45L262.55536 343.23126L263.49286 343.23126L263.49286 344.10626Q264.18036 343.09064 265.47723 343.09064Q266.03973 343.09064 266.50848 343.29376Q266.99286 343.4969 267.22723 343.825Q267.4616 344.15314 267.55536 344.59064Q267.60223 344.8875 267.60223 345.6219L267.60223 349.45L266.55536 349.45L266.55536 345.66876Q266.55536 345.0125 266.43036 344.7Q266.30536 344.3875 265.99286 344.2Q265.68036 343.9969 265.25848 343.9969Q264.5866 343.9969 264.0866 344.4344Q263.60223 344.85626 263.60223 346.04376L263.60223 349.45L262.55536 349.45ZM269.16473 346.34064Q269.16473 344.60626 270.11786 343.77814Q270.91473 343.09064 272.07098 343.09064Q273.35223 343.09064 274.16473 343.9344Q274.99286 344.7625 274.99286 346.2469Q274.99286 347.45 274.63348 348.1375Q274.2741 348.825 273.57098 349.21564Q272.88348 349.59064 272.07098 349.59064Q270.7741 349.59064 269.9616 348.7625Q269.16473 347.91876 269.16473 346.34064ZM270.24286 346.34064Q270.24286 347.52814 270.75848 348.1219Q271.28973 348.71564 272.07098 348.71564Q272.86786 348.71564 273.38348 348.1219Q273.8991 347.52814 273.8991 346.3094Q273.8991 345.15314 273.36786 344.5594Q272.85223 343.96564 272.07098 343.96564Q271.28973 343.96564 270.75848 344.5594Q270.24286 345.1375 270.24286 346.34064ZM276.13348 346.8719L276.13348 345.8094L279.38348 345.8094L279.38348 346.8719L276.13348 346.8719ZM280.16473 346.34064Q280.16473 344.60626 281.11786 343.77814Q281.91473 343.09064 283.07098 343.09064Q284.35223 343.09064 285.16473 343.9344Q285.99286 344.7625 285.99286 346.2469Q285.99286 347.45 285.63348 348.1375Q285.2741 348.825 284.57098 349.21564Q283.88348 349.59064 283.07098 349.59064Q281.7741 349.59064 280.9616 348.7625Q280.16473 347.91876 280.16473 346.34064ZM281.24286 346.34064Q281.24286 347.52814 281.75848 348.1219Q282.28973 348.71564 283.07098 348.71564Q283.86786 348.71564 284.38348 348.1219Q284.8991 347.52814 284.8991 346.3094Q284.8991 345.15314 284.36786 344.5594Q283.85223 343.96564 283.07098 343.96564Q282.28973 343.96564 281.75848 344.5594Q281.24286 345.1375 281.24286 346.34064ZM287.55536 351.84064L287.55536 343.23126L288.50848 343.23126L288.50848 344.02814Q288.85223 343.5594 289.2741 343.325Q289.7116 343.09064 290.32098 343.09064Q291.11786 343.09064 291.72723 343.4969Q292.3366 343.90314 292.63348 344.65314Q292.94598 345.40314 292.94598 346.29376Q292.94598 347.2469 292.60223 348.0125Q292.2741 348.77814 291.61786 349.1844Q290.9616 349.59064 290.24286 349.59064Q289.7116 349.59064 289.28973 349.3719Q288.86786 349.1375 288.60223 348.8094L288.60223 351.84064L287.55536 351.84064ZM288.50848 346.3719Q288.50848 347.575 288.99286 348.15314Q289.47723 348.71564 290.16473 348.71564Q290.86786 348.71564 291.36786 348.1219Q291.86786 347.52814 291.86786 346.27814Q291.86786 345.09064 291.38348 344.5125Q290.8991 343.91876 290.2116 343.91876Q289.53973 343.91876 289.0241 344.54376Q288.50848 345.16876 288.50848 346.3719ZM296.85223 348.5125L297.00848 349.4344Q296.55536 349.52814 296.2116 349.52814Q295.63348 349.52814 295.32098 349.35626Q295.00848 349.16876 294.86786 348.8719Q294.74286 348.575 294.74286 347.6219L294.74286 344.04376L293.97723 344.04376L293.97723 343.23126L294.74286 343.23126L294.74286 341.6844L295.78973 341.0594L295.78973 343.23126L296.85223 343.23126L296.85223 344.04376L295.78973 344.04376L295.78973 347.6844Q295.78973 348.1375 295.8366 348.2625Q295.8991 348.3875 296.0241 348.46564Q296.1491 348.54376 296.38348 348.54376Q296.57098 348.54376 296.85223 348.5125Z" fill-rule="nonzero"/><path fill="#000000" d="M328.78125 342.09064L328.78125 340.85626L329.84375 340.85626L329.84375 342.09064L328.78125 342.09064ZM327.45312 351.8719L327.64062 350.96564Q327.96875 351.04376 328.14062 351.04376Q328.46875 351.04376 328.625 350.825Q328.78125 350.6219 328.78125 349.7625L328.78125 343.23126L329.84375 343.23126L329.84375 349.79376Q329.84375 350.9344 329.54688 351.3875Q329.15625 351.98126 328.28125 351.98126Q327.84375 351.98126 327.45312 351.8719ZM331.79688 342.075L331.79688 340.85626L332.85938 340.85626L332.85938 342.075L331.79688 342.075ZM331.79688 349.45L331.79688 343.23126L332.85938 343.23126L332.85938 349.45L331.79688 349.45ZM337.09375 348.5125L337.25 349.4344Q336.79688 349.52814 336.45312 349.52814Q335.875 349.52814 335.5625 349.35626Q335.25 349.16876 335.10938 348.8719Q334.98438 348.575 334.98438 347.6219L334.98438 344.04376L334.21875 344.04376L334.21875 343.23126L334.98438 343.23126L334.98438 341.6844L336.03125 341.0594L336.03125 343.23126L337.09375 343.23126L337.09375 344.04376L336.03125 344.04376L336.03125 347.6844Q336.03125 348.1375 336.07812 348.2625Q336.14062 348.3875 336.26562 348.46564Q336.39062 348.54376 336.625 348.54376Q336.8125 348.54376 337.09375 348.5125Z" fill-rule="nonzero"/><path fill="#000000" d="M373.52274 342.09064L373.52274 340.85626L374.58524 340.85626L374.58524 342.09064L373.52274 342.09064ZM372.1946 351.8719L372.3821 350.96564Q372.71024 351.04376 372.8821 351.04376Q373.21024 351.04376 373.3665 350.825Q373.52274 350.6219 373.52274 349.7625L373.52274 343.23126L374.58524 343.23126L374.58524 349.79376Q374.58524 350.9344 374.28836 351.3875Q373.89774 351.98126 373.02274 351.98126Q372.58524 351.98126 372.1946 351.8719ZM376.53836 342.075L376.53836 340.85626L377.60086 340.85626L377.60086 342.075L376.53836 342.075ZM376.53836 349.45L376.53836 343.23126L377.60086 343.23126L377.60086 349.45L376.53836 349.45ZM381.83524 348.5125L381.9915 349.4344Q381.53836 349.52814 381.1946 349.52814Q380.6165 349.52814 380.304 349.35626Q379.9915 349.16876 379.85086 348.8719Q379.72586 348.575 379.72586 347.6219L379.72586 344.04376L378.96024 344.04376L378.96024 343.23126L379.72586 343.23126L379.72586 341.6844L380.77274 341.0594L380.77274 343.23126L381.83524 343.23126L381.83524 344.04376L380.77274 344.04376L380.77274 347.6844Q380.77274 348.1375 380.8196 348.2625Q380.8821 348.3875 381.0071 348.46564Q381.1321 348.54376 381.3665 348.54376Q381.554 348.54376 381.83524 348.5125ZM385.1165 346.8719L385.1165 345.8094L388.3665 345.8094L388.3665 346.8719L385.1165 346.8719ZM389.1165 346.8719L389.1165 345.8094L392.3665 345.8094L392.3665 346.8719L389.1165 346.8719ZM393.53836 349.45L393.53836 343.23126L394.47586 343.23126L394.47586 344.10626Q395.16336 343.09064 396.46024 343.09064Q397.02274 343.09064 397.4915 343.29376Q397.97586 343.4969 398.21024 343.825Q398.4446 344.15314 398.53836 344.59064Q398.58524 344.8875 398.58524 345.6219L398.58524 349.45L397.53836 349.45L397.53836 345.66876Q397.53836 345.0125 397.41336 344.7Q397.28836 344.3875 396.97586 344.2Q396.66336 343.9969 396.2415 343.9969Q395.5696 343.9969 395.0696 344.4344Q394.58524 344.85626 394.58524 346.04376L394.58524 349.45L393.53836 349.45ZM400.14774 346.34064Q400.14774 344.60626 401.10086 343.77814Q401.89774 343.09064 403.054 343.09064Q404.33524 343.09064 405.14774 343.9344Q405.97586 344.7625 405.97586 346.2469Q405.97586 347.45 405.6165 348.1375Q405.2571 348.825 404.554 349.21564Q403.8665 349.59064 403.054 349.59064Q401.7571 349.59064 400.9446 348.7625Q400.14774 347.91876 400.14774 346.34064ZM401.22586 346.34064Q401.22586 347.52814 401.7415 348.1219Q402.27274 348.71564 403.054 348.71564Q403.85086 348.71564 404.3665 348.1219Q404.8821 347.52814 404.8821 346.3094Q404.8821 345.15314 404.35086 344.5594Q403.83524 343.96564 403.054 343.96564Q402.27274 343.96564 401.7415 344.5594Q401.22586 345.1375 401.22586 346.34064ZM407.1165 346.8719L407.1165 345.8094L410.3665 345.8094L410.3665 346.8719L407.1165 346.8719ZM411.14774 346.34064Q411.14774 344.60626 412.10086 343.77814Q412.89774 343.09064 414.054 343.09064Q415.33524 343.09064 416.14774 343.9344Q416.97586 344.7625 416.97586 346.2469Q416.97586 347.45 416.6165 348.1375Q416.2571 348.825 415.554 349.21564Q414.8665 349.59064 414.054 349.59064Q412.7571 349.59064 411.9446 348.7625Q411.14774 347.91876 411.14774 346.34064ZM412.22586 346.34064Q412.22586 347.52814 412.7415 348.1219Q413.27274 348.71564 414.054 348.71564Q414.85086 348.71564 415.3665 348.1219Q415.8821 347.52814 415.8821 346.3094Q415.8821 345.15314 415.35086 344.5594Q414.83524 343.96564 414.054 343.96564Q413.27274 343.96564 412.7415 344.5594Q412.22586 345.1375 412.22586 346.34064ZM418.53836 351.84064L418.53836 343.23126L419.4915 343.23126L419.4915 344.02814Q419.83524 343.5594 420.2571 343.325Q420.6946 343.09064 421.304 343.09064Q422.10086 343.09064 422.71024 343.4969Q423.3196 343.90314 423.6165 344.65314Q423.929 345.40314 423.929 346.29376Q423.929 347.2469 423.58524 348.0125Q423.2571 348.77814 422.60086 349.1844Q421.9446 349.59064 421.22586 349.59064Q420.6946 349.59064 420.27274 349.3719Q419.85086 349.1375 419.58524 348.8094L419.58524 351.84064L418.53836 351.84064ZM419.4915 346.3719Q419.4915 347.575 419.97586 348.15314Q420.46024 348.71564 421.14774 348.71564Q421.85086 348.71564 422.35086 348.1219Q422.85086 347.52814 422.85086 346.27814Q422.85086 345.09064 422.3665 344.5125Q421.8821 343.91876 421.1946 343.91876Q420.52274 343.91876 420.0071 344.54376Q419.4915 345.16876 419.4915 346.3719ZM427.83524 348.5125L427.9915 349.4344Q427.53836 349.52814 427.1946 349.52814Q426.6165 349.52814 426.304 349.35626Q425.9915 349.16876 425.85086 348.8719Q425.72586 348.575 425.72586 347.6219L425.72586 344.04376L424.96024 344.04376L424.96024 343.23126L425.72586 343.23126L425.72586 341.6844L426.77274 341.0594L426.77274 343.23126L427.83524 343.23126L427.83524 344.04376L426.77274 344.04376L426.77274 347.6844Q426.77274 348.1375 426.8196 348.2625Q426.8821 348.3875 427.0071 348.46564Q427.1321 348.54376 427.3665 348.54376Q427.554 348.54376 427.83524 348.5125Z" fill-rule="nonzero"/><path fill="#000000" d="M456.24863 349.45L455.26425 349.45L455.26425 340.85626L456.32675 340.85626L456.32675 343.91876Q456.99863 343.09064 458.02988 343.09064Q458.608 343.09064 459.108 343.325Q459.62363 343.54376 459.95175 343.96564Q460.2955 344.3875 460.483 344.98126Q460.6705 345.575 460.6705 346.2469Q460.6705 347.84064 459.87363 348.71564Q459.07675 349.59064 457.983 349.59064Q456.87363 349.59064 456.24863 348.66876L456.24863 349.45ZM456.233 346.29376Q456.233 347.40314 456.5455 347.90314Q457.0455 348.71564 457.88925 348.71564Q458.57675 348.71564 459.07675 348.1219Q459.59238 347.52814 459.59238 346.325Q459.59238 345.10626 459.108 344.52814Q458.62363 343.95 457.93613 343.95Q457.24863 343.95 456.733 344.5594Q456.233 345.15314 456.233 346.29376ZM466.358 349.45L466.358 348.52814Q465.62363 349.59064 464.37363 349.59064Q463.82675 349.59064 463.34238 349.3875Q462.87363 349.16876 462.63925 348.85626Q462.40488 348.52814 462.31113 348.0594Q462.24863 347.7625 462.24863 347.075L462.24863 343.23126L463.31113 343.23126L463.31113 346.6844Q463.31113 347.4969 463.37363 347.79376Q463.46738 348.2 463.77988 348.45Q464.108 348.6844 464.59238 348.6844Q465.06113 348.6844 465.46738 348.45Q465.88925 348.2 466.06113 347.77814Q466.24863 347.35626 466.24863 346.5594L466.24863 343.23126L467.2955 343.23126L467.2955 349.45L466.358 349.45ZM469.27988 342.075L469.27988 340.85626L470.34238 340.85626L470.34238 342.075L469.27988 342.075ZM469.27988 349.45L469.27988 343.23126L470.34238 343.23126L470.34238 349.45L469.27988 349.45ZM472.24863 349.45L472.24863 340.85626L473.31113 340.85626L473.31113 349.45L472.24863 349.45ZM479.31113 349.45L479.31113 348.66876Q478.71738 349.59064 477.57675 349.59064Q476.82675 349.59064 476.20175 349.1844Q475.57675 348.7625 475.233 348.02814Q474.88925 347.29376 474.88925 346.34064Q474.88925 345.41876 475.20175 344.65314Q475.51425 343.8875 476.13925 343.4969Q476.76425 343.09064 477.52988 343.09064Q478.09238 343.09064 478.52988 343.325Q478.96738 343.5594 479.24863 343.9344L479.24863 340.85626L480.2955 340.85626L480.2955 349.45L479.31113 349.45ZM475.983 346.34064Q475.983 347.54376 476.483 348.1375Q476.983 348.71564 477.6705 348.71564Q478.358 348.71564 478.84238 348.15314Q479.32675 347.59064 479.32675 346.4344Q479.32675 345.15314 478.82675 344.5594Q478.34238 343.96564 477.62363 343.96564Q476.9205 343.96564 476.45175 344.54376Q475.983 345.10626 475.983 346.34064Z" fill-rule="nonzero"/><path fill="#000000" d="M500.9901 349.45L500.00574 349.45L500.00574 340.85626L501.06824 340.85626L501.06824 343.91876Q501.7401 343.09064 502.77136 343.09064Q503.3495 343.09064 503.8495 343.325Q504.3651 343.54376 504.69324 343.96564Q505.037 344.3875 505.2245 344.98126Q505.412 345.575 505.412 346.2469Q505.412 347.84064 504.6151 348.71564Q503.81824 349.59064 502.7245 349.59064Q501.6151 349.59064 500.9901 348.66876L500.9901 349.45ZM500.9745 346.29376Q500.9745 347.40314 501.287 347.90314Q501.787 348.71564 502.63074 348.71564Q503.31824 348.71564 503.81824 348.1219Q504.33386 347.52814 504.33386 346.325Q504.33386 345.10626 503.8495 344.52814Q503.3651 343.95 502.6776 343.95Q501.9901 343.95 501.4745 344.5594Q500.9745 345.15314 500.9745 346.29376ZM511.0995 349.45L511.0995 348.52814Q510.3651 349.59064 509.1151 349.59064Q508.56824 349.59064 508.08386 349.3875Q507.6151 349.16876 507.38074 348.85626Q507.14636 348.52814 507.0526 348.0594Q506.9901 347.7625 506.9901 347.075L506.9901 343.23126L508.0526 343.23126L508.0526 346.6844Q508.0526 347.4969 508.1151 347.79376Q508.20886 348.2 508.52136 348.45Q508.8495 348.6844 509.33386 348.6844Q509.8026 348.6844 510.20886 348.45Q510.63074 348.2 510.8026 347.77814Q510.9901 347.35626 510.9901 346.5594L510.9901 343.23126L512.037 343.23126L512.037 349.45L511.0995 349.45ZM514.02136 342.075L514.02136 340.85626L515.08386 340.85626L515.08386 342.075L514.02136 342.075ZM514.02136 349.45L514.02136 343.23126L515.08386 343.23126L515.08386 349.45L514.02136 349.45ZM516.9901 349.45L516.9901 340.85626L518.0526 340.85626L518.0526 349.45L516.9901 349.45ZM524.0526 349.45L524.0526 348.66876Q523.45886 349.59064 522.31824 349.59064Q521.56824 349.59064 520.94324 349.1844Q520.31824 348.7625 519.9745 348.02814Q519.63074 347.29376 519.63074 346.34064Q519.63074 345.41876 519.94324 344.65314Q520.25574 343.8875 520.88074 343.4969Q521.50574 343.09064 522.27136 343.09064Q522.83386 343.09064 523.27136 343.325Q523.70886 343.5594 523.9901 343.9344L523.9901 340.85626L525.037 340.85626L525.037 349.45L524.0526 349.45ZM520.7245 346.34064Q520.7245 347.54376 521.2245 348.1375Q521.7245 348.71564 522.412 348.71564Q523.0995 348.71564 523.58386 348.15314Q524.06824 347.59064 524.06824 346.4344Q524.06824 345.15314 523.56824 344.5594Q523.08386 343.96564 522.3651 343.96564Q521.662 343.96564 521.19324 344.54376Q520.7245 345.10626 520.7245 346.34064ZM529.5995 346.8719L529.5995 345.8094L532.8495 345.8094L532.8495 346.8719L529.5995 346.8719ZM533.5995 346.8719L533.5995 345.8094L536.8495 345.8094L536.8495 346.8719L533.5995 346.8719ZM538.02136 349.45L538.02136 343.23126L538.95886 343.23126L538.95886 344.10626Q539.64636 343.09064 540.94324 343.09064Q541.50574 343.09064 541.9745 343.29376Q542.45886 343.4969 542.69324 343.825Q542.9276 344.15314 543.02136 344.59064Q543.06824 344.8875 543.06824 345.6219L543.06824 349.45L542.02136 349.45L542.02136 345.66876Q542.02136 345.0125 541.89636 344.7Q541.77136 344.3875 541.45886 344.2Q541.14636 343.9969 540.7245 343.9969Q540.0526 343.9969 539.5526 344.4344Q539.06824 344.85626 539.06824 346.04376L539.06824 349.45L538.02136 349.45ZM544.63074 346.34064Q544.63074 344.60626 545.58386 343.77814Q546.38074 343.09064 547.537 343.09064Q548.81824 343.09064 549.63074 343.9344Q550.45886 344.7625 550.45886 346.2469Q550.45886 347.45 550.0995 348.1375Q549.7401 348.825 549.037 349.21564Q548.3495 349.59064 547.537 349.59064Q546.2401 349.59064 545.4276 348.7625Q544.63074 347.91876 544.63074 346.34064ZM545.70886 346.34064Q545.70886 347.52814 546.2245 348.1219Q546.75574 348.71564 547.537 348.71564Q548.33386 348.71564 548.8495 348.1219Q549.3651 347.52814 549.3651 346.3094Q549.3651 345.15314 548.83386 344.5594Q548.31824 343.96564 547.537 343.96564Q546.75574 343.96564 546.2245 344.5594Q545.70886 345.1375 545.70886 346.34064ZM551.5995 346.8719L551.5995 345.8094L554.8495 345.8094L554.8495 346.8719L551.5995 346.8719ZM555.63074 346.34064Q555.63074 344.60626 556.58386 343.77814Q557.38074 343.09064 558.537 343.09064Q559.81824 343.09064 560.63074 343.9344Q561.45886 344.7625 561.45886 346.2469Q561.45886 347.45 561.0995 348.1375Q560.7401 348.825 560.037 349.21564Q559.3495 349.59064 558.537 349.59064Q557.2401 349.59064 556.4276 348.7625Q555.63074 347.91876 555.63074 346.34064ZM556.70886 346.34064Q556.70886 347.52814 557.2245 348.1219Q557.75574 348.71564 558.537 348.71564Q559.33386 348.71564 559.8495 348.1219Q560.3651 347.52814 560.3651 346.3094Q560.3651 345.15314 559.83386 344.5594Q559.31824 343.96564 558.537 343.96564Q557.75574 343.96564 557.2245 344.5594Q556.70886 345.1375 556.70886 346.34064ZM563.02136 351.84064L563.02136 343.23126L563.9745 343.23126L563.9745 344.02814Q564.31824 343.5594 564.7401 343.325Q565.1776 343.09064 565.787 343.09064Q566.58386 343.09064 567.19324 343.4969Q567.8026 343.90314 568.0995 344.65314Q568.412 345.40314 568.412 346.29376Q568.412 347.2469 568.06824 348.0125Q567.7401 348.77814 567.08386 349.1844Q566.4276 349.59064 565.70886 349.59064Q565.1776 349.59064 564.75574 349.3719Q564.33386 349.1375 564.06824 348.8094L564.06824 351.84064L563.02136 351.84064ZM563.9745 346.3719Q563.9745 347.575 564.45886 348.15314Q564.94324 348.71564 565.63074 348.71564Q566.33386 348.71564 566.83386 348.1219Q567.33386 347.52814 567.33386 346.27814Q567.33386 345.09064 566.8495 344.5125Q566.3651 343.91876 565.6776 343.91876Q565.00574 343.91876 564.4901 344.54376Q563.9745 345.16876 563.9745 346.3719ZM572.31824 348.5125L572.4745 349.4344Q572.02136 349.52814 571.6776 349.52814Q571.0995 349.52814 570.787 349.35626Q570.4745 349.16876 570.33386 348.8719Q570.20886 348.575 570.20886 347.6219L570.20886 344.04376L569.44324 344.04376L569.44324 343.23126L570.20886 343.23126L570.20886 341.6844L571.25574 341.0594L571.25574 343.23126L572.31824 343.23126L572.31824 344.04376L571.25574 344.04376L571.25574 347.6844Q571.25574 348.1375 571.3026 348.2625Q571.3651 348.3875 571.4901 348.46564Q571.6151 348.54376 571.8495 348.54376Q572.037 348.54376 572.31824 348.5125Z" fill-rule="nonzero"/></svg>